<?xml version="1.0" encoding="UTF-8"?>
<!--Generator: Apple Native CoreSVG 175-->
<!DOCTYPE svg
PUBLIC "-//W3C//DTD SVG 1.1//EN"
       "http://www.w3.org/Graphics/SVG/1.1/DTD/svg11.dtd">
<svg version="1.1" xmlns="http://www.w3.org/2000/svg" xmlns:xlink="http://www.w3.org/1999/xlink" width="3300" height="2200">
 <!--glyph: "", point size: 100.0, font version: "17.1d1e1", template writer version: "65.1"-->
 <style>.hierarchical-0:tertiary {fill:#8E8E8E}
.hierarchical-1:primary {fill:#212121}

.SFSymbolsPreview212121 {fill:#212121;opacity:1.0}
.SFSymbolsPreview8E8E8E {fill:#8E8E8E;opacity:1.0}
</style>
 <g id="Notes">
  <rect height="2200" id="artboard" style="fill:white;opacity:1" width="3300" x="0" y="0"/>
  <line style="fill:none;stroke:black;opacity:1;stroke-width:0.5;" x1="263" x2="3036" y1="292" y2="292"/>
  <text style="stroke:none;fill:black;font-family:sans-serif;font-size:13;font-weight:bold;" transform="matrix(1 0 0 1 263 322)">Weight/Scale Variations</text>
  <text style="stroke:none;fill:black;font-family:sans-serif;font-size:13;text-anchor:middle;" transform="matrix(1 0 0 1 559.711 322)">Ultralight</text>
  <text style="stroke:none;fill:black;font-family:sans-serif;font-size:13;text-anchor:middle;" transform="matrix(1 0 0 1 856.422 322)">Thin</text>
  <text style="stroke:none;fill:black;font-family:sans-serif;font-size:13;text-anchor:middle;" transform="matrix(1 0 0 1 1153.13 322)">Light</text>
  <text style="stroke:none;fill:black;font-family:sans-serif;font-size:13;text-anchor:middle;" transform="matrix(1 0 0 1 1449.84 322)">Regular</text>
  <text style="stroke:none;fill:black;font-family:sans-serif;font-size:13;text-anchor:middle;" transform="matrix(1 0 0 1 1746.56 322)">Medium</text>
  <text style="stroke:none;fill:black;font-family:sans-serif;font-size:13;text-anchor:middle;" transform="matrix(1 0 0 1 2043.27 322)">Semibold</text>
  <text style="stroke:none;fill:black;font-family:sans-serif;font-size:13;text-anchor:middle;" transform="matrix(1 0 0 1 2339.98 322)">Bold</text>
  <text style="stroke:none;fill:black;font-family:sans-serif;font-size:13;text-anchor:middle;" transform="matrix(1 0 0 1 2636.69 322)">Heavy</text>
  <text style="stroke:none;fill:black;font-family:sans-serif;font-size:13;text-anchor:middle;" transform="matrix(1 0 0 1 2933.4 322)">Black</text>
  <line style="fill:none;stroke:black;opacity:1;stroke-width:0.5;" x1="263" x2="3036" y1="1903" y2="1903"/>
  <g transform="matrix(1 0 0 1 263 1933)">
   <path d="M9.24805 0.830078Q10.8691 0.830078 12.2949 0.214844Q13.7207-0.400391 14.8096-1.49414Q15.8984-2.58789 16.5186-4.01367Q17.1387-5.43945 17.1387-7.05078Q17.1387-8.66211 16.5186-10.0879Q15.8984-11.5137 14.8047-12.6074Q13.7109-13.7012 12.2852-14.3164Q10.8594-14.9316 9.23828-14.9316Q7.62695-14.9316 6.20117-14.3164Q4.77539-13.7012 3.69141-12.6074Q2.60742-11.5137 1.9873-10.0879Q1.36719-8.66211 1.36719-7.05078Q1.36719-5.43945 1.9873-4.01367Q2.60742-2.58789 3.69629-1.49414Q4.78516-0.400391 6.21094 0.214844Q7.63672 0.830078 9.24805 0.830078ZM9.24805-0.654297Q7.91992-0.654297 6.7627-1.14746Q5.60547-1.64062 4.73145-2.51953Q3.85742-3.39844 3.36426-4.56055Q2.87109-5.72266 2.87109-7.05078Q2.87109-8.37891 3.35938-9.54102Q3.84766-10.7031 4.72168-11.582Q5.5957-12.4609 6.75293-12.9541Q7.91016-13.4473 9.23828-13.4473Q10.5762-13.4473 11.7334-12.9541Q12.8906-12.4609 13.7695-11.582Q14.6484-10.7031 15.1465-9.54102Q15.6445-8.37891 15.6445-7.05078Q15.6445-5.72266 15.1514-4.56055Q14.6582-3.39844 13.7842-2.51953Q12.9102-1.64062 11.748-1.14746Q10.5859-0.654297 9.24805-0.654297ZM5.6543-7.05078Q5.6543-6.72852 5.85938-6.52832Q6.06445-6.32812 6.40625-6.32812L8.51562-6.32812L8.51562-4.20898Q8.51562-3.88672 8.71094-3.67676Q8.90625-3.4668 9.23828-3.4668Q9.56055-3.4668 9.77051-3.67676Q9.98047-3.88672 9.98047-4.20898L9.98047-6.32812L12.0898-6.32812Q12.4219-6.32812 12.627-6.52832Q12.832-6.72852 12.832-7.05078Q12.832-7.38281 12.627-7.58789Q12.4219-7.79297 12.0898-7.79297L9.98047-7.79297L9.98047-9.90234Q9.98047-10.2344 9.77051-10.4443Q9.56055-10.6543 9.23828-10.6543Q8.90625-10.6543 8.71094-10.4443Q8.51562-10.2344 8.51562-9.90234L8.51562-7.79297L6.40625-7.79297Q6.06445-7.79297 5.85938-7.58789Q5.6543-7.38281 5.6543-7.05078Z"/>
  </g>
  <g transform="matrix(1 0 0 1 281.867 1933)">
   <path d="M11.709 2.91016Q13.75 2.91016 15.5518 2.12891Q17.3535 1.34766 18.7305-0.0292969Q20.1074-1.40625 20.8887-3.20801Q21.6699-5.00977 21.6699-7.05078Q21.6699-9.0918 20.8887-10.8936Q20.1074-12.6953 18.7305-14.0723Q17.3535-15.4492 15.5469-16.2305Q13.7402-17.0117 11.6992-17.0117Q9.6582-17.0117 7.85645-16.2305Q6.05469-15.4492 4.68262-14.0723Q3.31055-12.6953 2.5293-10.8936Q1.74805-9.0918 1.74805-7.05078Q1.74805-5.00977 2.5293-3.20801Q3.31055-1.40625 4.6875-0.0292969Q6.06445 1.34766 7.86621 2.12891Q9.66797 2.91016 11.709 2.91016ZM11.709 1.25Q9.98047 1.25 8.47656 0.605469Q6.97266-0.0390625 5.83496-1.17676Q4.69727-2.31445 4.05762-3.81836Q3.41797-5.32227 3.41797-7.05078Q3.41797-8.7793 4.05762-10.2832Q4.69727-11.7871 5.83008-12.9297Q6.96289-14.0723 8.4668-14.7119Q9.9707-15.3516 11.6992-15.3516Q13.4277-15.3516 14.9316-14.7119Q16.4355-14.0723 17.5781-12.9297Q18.7207-11.7871 19.3652-10.2832Q20.0098-8.7793 20.0098-7.05078Q20.0098-5.32227 19.3701-3.81836Q18.7305-2.31445 17.5928-1.17676Q16.4551-0.0390625 14.9463 0.605469Q13.4375 1.25 11.709 1.25ZM7.17773-7.05078Q7.17773-6.69922 7.41211-6.47461Q7.64648-6.25 8.01758-6.25L10.8887-6.25L10.8887-3.36914Q10.8887-2.99805 11.1133-2.76855Q11.3379-2.53906 11.6895-2.53906Q12.0605-2.53906 12.29-2.76855Q12.5195-2.99805 12.5195-3.36914L12.5195-6.25L15.4004-6.25Q15.7715-6.25 16.001-6.47461Q16.2305-6.69922 16.2305-7.05078Q16.2305-7.42188 16.001-7.65137Q15.7715-7.88086 15.4004-7.88086L12.5195-7.88086L12.5195-10.752Q12.5195-11.1328 12.29-11.3623Q12.0605-11.5918 11.6895-11.5918Q11.3379-11.5918 11.1133-11.3574Q10.8887-11.123 10.8887-10.752L10.8887-7.88086L8.01758-7.88086Q7.63672-7.88086 7.40723-7.65137Q7.17773-7.42188 7.17773-7.05078Z"/>
  </g>
  <g transform="matrix(1 0 0 1 305.646 1933)">
   <path d="M14.9707 5.66406Q17.0605 5.66406 18.96 5.01465Q20.8594 4.36523 22.4512 3.19336Q24.043 2.02148 25.2197 0.429688Q26.3965-1.16211 27.0459-3.06641Q27.6953-4.9707 27.6953-7.05078Q27.6953-9.14062 27.0459-11.04Q26.3965-12.9395 25.2197-14.5312Q24.043-16.123 22.4512-17.2998Q20.8594-18.4766 18.9551-19.126Q17.0508-19.7754 14.9609-19.7754Q12.8711-19.7754 10.9717-19.126Q9.07227-18.4766 7.48535-17.2998Q5.89844-16.123 4.72168-14.5312Q3.54492-12.9395 2.90039-11.04Q2.25586-9.14062 2.25586-7.05078Q2.25586-4.9707 2.90527-3.06641Q3.55469-1.16211 4.72656 0.429688Q5.89844 2.02148 7.49023 3.19336Q9.08203 4.36523 10.9814 5.01465Q12.8809 5.66406 14.9707 5.66406ZM14.9707 3.84766Q13.1641 3.84766 11.5283 3.2959Q9.89258 2.74414 8.53516 1.74805Q7.17773 0.751953 6.17676-0.610352Q5.17578-1.97266 4.62891-3.6084Q4.08203-5.24414 4.08203-7.05078Q4.08203-8.86719 4.62891-10.5029Q5.17578-12.1387 6.17188-13.501Q7.16797-14.8633 8.52539-15.8594Q9.88281-16.8555 11.5186-17.4023Q13.1543-17.9492 14.9609-17.9492Q16.7773-17.9492 18.4131-17.4023Q20.0488-16.8555 21.4111-15.8594Q22.7734-14.8633 23.7695-13.501Q24.7656-12.1387 25.3174-10.5029Q25.8691-8.86719 25.8691-7.05078Q25.8789-5.24414 25.332-3.6084Q24.7852-1.97266 23.7842-0.610352Q22.7832 0.751953 21.4209 1.74805Q20.0586 2.74414 18.4229 3.2959Q16.7871 3.84766 14.9707 3.84766ZM9.19922-7.05078Q9.19922-6.66992 9.45801-6.4209Q9.7168-6.17188 10.1172-6.17188L14.0625-6.17188L14.0625-2.2168Q14.0625-1.81641 14.3115-1.55762Q14.5605-1.29883 14.9512-1.29883Q15.3516-1.29883 15.6104-1.55273Q15.8691-1.80664 15.8691-2.2168L15.8691-6.17188L19.8242-6.17188Q20.2246-6.17188 20.4785-6.4209Q20.7324-6.66992 20.7324-7.05078Q20.7324-7.46094 20.4785-7.71484Q20.2246-7.96875 19.8242-7.96875L15.8691-7.96875L15.8691-11.9141Q15.8691-12.3242 15.6104-12.583Q15.3516-12.8418 14.9512-12.8418Q14.5605-12.8418 14.3115-12.583Q14.0625-12.3242 14.0625-11.9141L14.0625-7.96875L10.1172-7.96875Q9.70703-7.96875 9.45312-7.71484Q9.19922-7.46094 9.19922-7.05078Z"/>
  </g>
  <text style="stroke:none;fill:black;font-family:sans-serif;font-size:13;font-weight:bold;" transform="matrix(1 0 0 1 263 1953)">Design Variations</text>
  <text style="stroke:none;fill:black;font-family:sans-serif;font-size:13;" transform="matrix(1 0 0 1 263 1971)">Symbols are supported in up to nine weights and three scales.</text>
  <text style="stroke:none;fill:black;font-family:sans-serif;font-size:13;" transform="matrix(1 0 0 1 263 1989)">For optimal layout with text and other symbols, vertically align</text>
  <text style="stroke:none;fill:black;font-family:sans-serif;font-size:13;" transform="matrix(1 0 0 1 263 2007)">symbols with the adjacent text.</text>
  <line style="fill:none;stroke:#00AEEF;stroke-width:0.5;opacity:1.0;" x1="776" x2="776" y1="1919" y2="1933"/>
  <g transform="matrix(1 0 0 1 776 1933)">
   <path d="M3.31055 0.15625Q3.70117 0.15625 3.91602-0.00976562Q4.13086-0.175781 4.26758-0.585938L5.52734-4.0332L11.2891-4.0332L12.5488-0.585938Q12.6855-0.175781 12.9004-0.00976562Q13.1152 0.15625 13.4961 0.15625Q13.8867 0.15625 14.1162-0.0585938Q14.3457-0.273438 14.3457-0.644531Q14.3457-0.869141 14.2383-1.17188L9.6582-13.3691Q9.48242-13.8184 9.17969-14.043Q8.87695-14.2676 8.4082-14.2676Q7.5-14.2676 7.17773-13.3789L2.59766-1.16211Q2.49023-0.859375 2.49023-0.634766Q2.49023-0.263672 2.70996-0.0537109Q2.92969 0.15625 3.31055 0.15625ZM6.00586-5.51758L8.37891-12.0898L8.42773-12.0898L10.8008-5.51758Z"/>
  </g>
  <line style="fill:none;stroke:#00AEEF;stroke-width:0.5;opacity:1.0;" x1="793.197" x2="793.197" y1="1919" y2="1933"/>
  <text style="stroke:none;fill:black;font-family:sans-serif;font-size:13;font-weight:bold;" transform="matrix(1 0 0 1 776 1953)">Margins</text>
  <text style="stroke:none;fill:black;font-family:sans-serif;font-size:13;" transform="matrix(1 0 0 1 776 1971)">Leading and trailing margins on the left and right side of each symbol</text>
  <text style="stroke:none;fill:black;font-family:sans-serif;font-size:13;" transform="matrix(1 0 0 1 776 1989)">can be adjusted by modifying the x-location of the margin guidelines.</text>
  <text style="stroke:none;fill:black;font-family:sans-serif;font-size:13;" transform="matrix(1 0 0 1 776 2007)">Modifications are automatically applied proportionally to all</text>
  <text style="stroke:none;fill:black;font-family:sans-serif;font-size:13;" transform="matrix(1 0 0 1 776 2025)">scales and weights.</text>
  <g transform="matrix(1 0 0 1 1289 1933)">
   <path d="M2.8418 1.86523L4.54102 3.57422Q5.18555 4.22852 5.90332 4.17969Q6.62109 4.13086 7.31445 3.35938L18.0078-8.42773L17.041-9.4043L6.42578 2.27539Q6.16211 2.57812 5.89355 2.61719Q5.625 2.65625 5.27344 2.30469L4.10156 1.14258Q3.75 0.791016 3.79395 0.522461Q3.83789 0.253906 4.14062-0.0195312L15.6152-10.8203L14.6387-11.7871L3.04688-0.898438Q2.30469-0.214844 2.25098 0.498047Q2.19727 1.21094 2.8418 1.86523ZM9.25781-16.3281Q8.94531-16.0254 8.90625-15.6348Q8.86719-15.2441 9.04297-14.9512Q9.21875-14.6777 9.55566-14.541Q9.89258-14.4043 10.3809-14.5215Q11.4746-14.7754 12.5977-14.7314Q13.7207-14.6875 14.7949-13.9844L14.209-12.5293Q13.9551-11.9043 14.0674-11.4404Q14.1797-10.9766 14.5801-10.5664L16.875-8.25195Q17.2363-7.88086 17.5781-7.82227Q17.9199-7.76367 18.3398-7.8418L19.4043-8.03711L20.0684-7.36328L20.0293-6.80664Q20-6.43555 20.1221-6.12305Q20.2441-5.81055 20.6055-5.44922L21.3672-4.70703Q21.7285-4.3457 22.1533-4.33105Q22.5781-4.31641 22.9297-4.66797L25.8398-7.58789Q26.1914-7.93945 26.1816-8.35449Q26.1719-8.76953 25.8105-9.13086L25.0391-9.89258Q24.6875-10.2539 24.3799-10.3857Q24.0723-10.5176 23.7109-10.4883L23.1348-10.4395L22.4902-11.0742L22.7344-12.1973Q22.832-12.6172 22.6953-12.9834Q22.5586-13.3496 22.1191-13.7891L19.9219-15.9766Q18.6719-17.2168 17.2607-17.8369Q15.8496-18.457 14.4189-18.4814Q12.9883-18.5059 11.665-17.959Q10.3418-17.4121 9.25781-16.3281ZM10.752-15.957Q11.6602-16.6211 12.7002-16.9043Q13.7402-17.1875 14.8047-17.085Q15.8691-16.9824 16.8701-16.5137Q17.8711-16.0449 18.7012-15.2051L21.1328-12.793Q21.3086-12.6172 21.3525-12.4512Q21.3965-12.2852 21.3379-12.0312L21.0156-10.5469L22.5195-9.0625L23.5059-9.12109Q23.6914-9.13086 23.7891-9.09668Q23.8867-9.0625 24.0332-8.91602L24.6094-8.33984L22.168-5.89844L21.5918-6.47461Q21.4453-6.62109 21.4062-6.71875Q21.3672-6.81641 21.377-7.01172L21.4453-7.98828L19.9512-9.47266L18.4277-9.21875Q18.1836-9.16992 18.042-9.2041Q17.9004-9.23828 17.7148-9.41406L15.7129-11.416Q15.5176-11.5918 15.4932-11.7529Q15.4688-11.9141 15.5859-12.1875L16.4648-14.2773Q15.293-15.3711 13.8281-15.791Q12.3633-16.2109 10.8398-15.7617Q10.7227-15.7324 10.6885-15.8057Q10.6543-15.8789 10.752-15.957Z"/>
  </g>
  <text style="stroke:none;fill:black;font-family:sans-serif;font-size:13;font-weight:bold;" transform="matrix(1 0 0 1 1289 1953)">Exporting</text>
  <text style="stroke:none;fill:black;font-family:sans-serif;font-size:13;" transform="matrix(1 0 0 1 1289 1971)">Symbols should be outlined when exporting to ensure the</text>
  <text style="stroke:none;fill:black;font-family:sans-serif;font-size:13;" transform="matrix(1 0 0 1 1289 1989)">design is preserved when submitting to Xcode.</text>
  <text id="template-version" style="stroke:none;fill:black;font-family:sans-serif;font-size:13;text-anchor:end;" transform="matrix(1 0 0 1 3036 1933)">Template v.3.0</text>
  <text style="stroke:none;fill:black;font-family:sans-serif;font-size:13;text-anchor:end;" transform="matrix(1 0 0 1 3036 1951)">Requires Xcode 13 or greater</text>
  <text id="descriptive-name" style="stroke:none;fill:black;font-family:sans-serif;font-size:13;text-anchor:end;" transform="matrix(1 0 0 1 3036 1969)">Generated from abc.app.fill</text>
  <text style="stroke:none;fill:black;font-family:sans-serif;font-size:13;text-anchor:end;" transform="matrix(1 0 0 1 3036 1987)">Typeset at 100 points</text>
  <text style="stroke:none;fill:black;font-family:sans-serif;font-size:13;" transform="matrix(1 0 0 1 263 726)">Small</text>
  <text style="stroke:none;fill:black;font-family:sans-serif;font-size:13;" transform="matrix(1 0 0 1 263 1156)">Medium</text>
  <text style="stroke:none;fill:black;font-family:sans-serif;font-size:13;" transform="matrix(1 0 0 1 263 1586)">Large</text>
 </g>
 <g id="Guides">
  <g id="H-reference" style="fill:#27AAE1;stroke:none;" transform="matrix(1 0 0 1 339 696)">
   <path d="M0.993347 0L3.6377 0L29.3282-67.1326L30.0301-67.1326L30.0301-70.459L28.1227-70.459ZM11.6882-24.4797L46.9818-24.4797L46.2311-26.7288L12.4382-26.7288ZM55.1193 0L57.7637 0L30.6381-70.459L29.4327-70.459L29.4327-67.1326Z"/>
  </g>
  <line id="Baseline-S" style="fill:none;stroke:#27AAE1;opacity:1;stroke-width:0.5;" x1="263" x2="3036" y1="696" y2="696"/>
  <line id="Capline-S" style="fill:none;stroke:#27AAE1;opacity:1;stroke-width:0.5;" x1="263" x2="3036" y1="625.541" y2="625.541"/>
  <g id="H-reference" style="fill:#27AAE1;stroke:none;" transform="matrix(1 0 0 1 339 1126)">
   <path d="M0.993347 0L3.6377 0L29.3282-67.1326L30.0301-67.1326L30.0301-70.459L28.1227-70.459ZM11.6882-24.4797L46.9818-24.4797L46.2311-26.7288L12.4382-26.7288ZM55.1193 0L57.7637 0L30.6381-70.459L29.4327-70.459L29.4327-67.1326Z"/>
  </g>
  <line id="Baseline-M" style="fill:none;stroke:#27AAE1;opacity:1;stroke-width:0.5;" x1="263" x2="3036" y1="1126" y2="1126"/>
  <line id="Capline-M" style="fill:none;stroke:#27AAE1;opacity:1;stroke-width:0.5;" x1="263" x2="3036" y1="1055.54" y2="1055.54"/>
  <g id="H-reference" style="fill:#27AAE1;stroke:none;" transform="matrix(1 0 0 1 339 1556)">
   <path d="M0.993347 0L3.6377 0L29.3282-67.1326L30.0301-67.1326L30.0301-70.459L28.1227-70.459ZM11.6882-24.4797L46.9818-24.4797L46.2311-26.7288L12.4382-26.7288ZM55.1193 0L57.7637 0L30.6381-70.459L29.4327-70.459L29.4327-67.1326Z"/>
  </g>
  <line id="Baseline-L" style="fill:none;stroke:#27AAE1;opacity:1;stroke-width:0.5;" x1="263" x2="3036" y1="1556" y2="1556"/>
  <line id="Capline-L" style="fill:none;stroke:#27AAE1;opacity:1;stroke-width:0.5;" x1="263" x2="3036" y1="1485.54" y2="1485.54"/>
  <line id="left-margin-Ultralight-S" style="fill:none;stroke:#00AEEF;stroke-width:0.5;opacity:1.0;" x1="516.811" x2="516.811" y1="600.73" y2="720.135"/>
  <line id="right-margin-Ultralight-S" style="fill:none;stroke:#00AEEF;stroke-width:0.5;opacity:1.0;" x1="602.611" x2="602.611" y1="600.73" y2="720.135"/>
  <line id="left-margin-Regular-S" style="fill:none;stroke:#00AEEF;stroke-width:0.5;opacity:1.0;" x1="1404.89" x2="1404.89" y1="600.73" y2="720.135"/>
  <line id="right-margin-Regular-S" style="fill:none;stroke:#00AEEF;stroke-width:0.5;opacity:1.0;" x1="1494.79" x2="1494.79" y1="600.73" y2="720.135"/>
  <line id="left-margin-Black-S" style="fill:none;stroke:#00AEEF;stroke-width:0.5;opacity:1.0;" x1="2886" x2="2886" y1="600.73" y2="720.135"/>
  <line id="right-margin-Black-S" style="fill:none;stroke:#00AEEF;stroke-width:0.5;opacity:1.0;" x1="2980.8" x2="2980.8" y1="600.73" y2="720.135"/>
 </g>
 <g id="Symbols">
  <g id="Black-S" transform="matrix(1 0 0 1 2886 696)">
   <path class="hierarchical-0:tertiary SFSymbolsPreview8E8E8E" d="M79.49-67.3C77.39-69.3 74.99-70.8 72.19-71.6C69.39-72.4 65.69-72.9 61.09-72.9L33.69-72.9C29.09-72.9 25.39-72.5 22.59-71.6C19.79-70.8 17.29-69.3 15.29-67.3C13.29-65.3 11.89-62.9 10.99-60.1C10.19-57.3 9.79-53.6 9.79-49L9.79-21.6C9.79-17 10.19-13.3 10.99-10.5C11.79-7.7 13.29-5.3 15.29-3.3C17.39-1.3 19.79 0.2 22.59 1C25.39 1.8 29.09 2.3 33.69 2.3L61.09 2.3C65.69 2.3 69.39 1.9 72.19 1C74.99 0.2 77.49-1.3 79.49-3.3C81.49-5.3 82.89-7.7 83.79-10.5C84.59-13.3 84.99-17 84.99-21.6L84.99-49C84.99-53.6 84.59-57.3 83.79-60.2C82.99-62.9 81.59-65.3 79.49-67.3Z"/>
   <path class="hierarchical-1:primary SFSymbolsPreview212121" d="M39.99-20.6C41.19-20.6 42.09-20.9 42.69-21.5C43.29-22.1 43.69-23 43.69-24.1L43.69-24.5L43.79-24.5C44.29-23.3 45.09-22.3 46.19-21.6C47.29-20.9 48.59-20.5 50.09-20.5C51.99-20.5 53.49-20.9 54.79-21.8C56.09-22.7 57.09-23.9 57.69-25.6C58.39-27.2 58.69-29.2 58.69-31.5C58.69-33.8 58.39-35.8 57.69-37.5C56.99-39.1 55.99-40.4 54.69-41.3C53.39-42.2 51.79-42.6 49.99-42.6C48.59-42.6 47.29-42.2 46.19-41.5C45.09-40.8 44.29-39.8 43.79-38.5L43.59-38.5L43.59-46C43.59-47.1 43.29-48 42.59-48.6C41.89-49.2 40.99-49.6 39.99-49.6C38.99-49.6 37.99-49.3 37.39-48.6C36.79-47.9 36.39-47.1 36.39-46L36.39-24.1C36.39-23 36.69-22.1 37.29-21.5C37.89-20.9 38.79-20.6 39.99-20.6ZM47.49-26C46.69-26 46.09-26.2 45.49-26.7C44.89-27.2 44.49-27.8 44.09-28.6C43.69-29.4 43.59-30.4 43.59-31.5C43.59-32.6 43.79-33.6 44.09-34.4C44.39-35.2 44.89-35.9 45.49-36.3C46.09-36.7 46.69-37 47.49-37C48.59-37 49.49-36.5 50.29-35.5C50.99-34.5 51.39-33.1 51.39-31.4C51.39-29.7 50.99-28.4 50.29-27.4C49.59-26.5 48.69-26 47.49-26ZM19.99-20.6C21.29-20.6 22.49-20.9 23.59-21.5C24.69-22.1 25.59-22.9 26.09-24L26.19-24L26.19-23.6C26.29-22.6 26.59-21.8 27.29-21.3C27.99-20.8 28.69-20.5 29.79-20.5C30.89-20.5 31.79-20.8 32.39-21.4C32.99-22 33.39-22.9 33.39-24.1L33.39-35.6C33.39-37.7 32.49-39.5 30.79-40.8C29.09-42.1 26.69-42.8 23.69-42.8C21.19-42.8 19.09-42.4 17.39-41.7C15.69-41 14.59-39.9 14.19-38.5C14.09-38.3 14.09-38.1 13.99-37.9C13.89-37.7 13.99-37.5 13.99-37.3C13.99-36.5 14.29-35.9 14.79-35.4C15.29-34.9 16.09-34.7 16.99-34.7C17.59-34.7 18.19-34.8 18.69-35C19.19-35.2 19.59-35.5 19.99-35.9C20.69-36.6 21.29-37.1 21.69-37.4C22.09-37.7 22.79-37.8 23.39-37.8C24.19-37.8 24.89-37.6 25.49-37.1C26.09-36.6 26.29-36 26.29-35.1L26.29-33.9L21.49-33.6C18.59-33.4 16.49-32.8 14.99-31.7C13.49-30.6 12.79-29 12.79-27C12.79-25.7 13.09-24.6 13.79-23.6C14.49-22.6 15.29-21.8 16.39-21.3C17.49-20.8 18.59-20.6 19.99-20.6ZM22.39-25.4C21.69-25.4 21.09-25.6 20.59-26C20.09-26.4 19.89-26.9 19.89-27.6C19.89-28.2 20.09-28.8 20.59-29.1C21.09-29.4 21.69-29.7 22.49-29.8L26.19-30.1L26.19-28.6C26.19-28 25.99-27.4 25.69-26.9C25.39-26.4 24.89-26 24.29-25.8C23.69-25.6 23.09-25.4 22.39-25.4ZM72.19-20.6C74.39-20.6 76.29-21 78.09-21.9C79.79-22.8 81.09-24 81.79-25.4C81.99-25.8 82.09-26.1 82.19-26.4C82.29-26.7 82.29-27 82.29-27.2C82.29-28.1 81.99-28.7 81.39-29.3C80.79-29.8 80.09-30.1 79.19-30.1C78.39-30.1 77.69-29.9 77.29-29.6C76.79-29.3 76.39-28.7 75.89-28.1C75.49-27.5 74.99-27 74.39-26.6C73.79-26.2 73.19-26 72.39-26C71.19-26 70.29-26.5 69.59-27.5C68.89-28.5 68.59-30 68.59-31.9C68.59-33.8 68.89-35.2 69.59-36.3C70.29-37.3 71.19-37.8 72.39-37.8C73.09-37.8 73.69-37.6 74.29-37.2C74.89-36.8 75.39-36.2 75.89-35.3C76.19-34.8 76.59-34.3 77.09-34C77.59-33.7 78.19-33.6 78.89-33.6C79.79-33.6 80.49-33.8 81.09-34.3C81.69-34.8 81.99-35.4 81.99-36.3C81.99-36.6 81.99-36.9 81.89-37.2C81.79-37.5 81.69-37.8 81.59-38.1C80.99-39.7 79.79-40.9 78.09-41.8C76.39-42.7 74.39-43.2 72.09-43.2C69.79-43.2 67.89-42.7 66.19-41.8C64.59-40.9 63.29-39.6 62.39-37.9C61.49-36.2 61.09-34.3 61.09-32C61.09-28.5 62.09-25.8 64.09-23.8C66.09-21.6 68.79-20.6 72.19-20.6Z"/>
  </g>
  <g id="Regular-S" transform="matrix(1 0 0 1 1404.89 696)">
   <path class="hierarchical-0:tertiary SFSymbolsPreview8E8E8E" d="M75.5-65.8C73.4-67.9 71-69.2 68.2-69.7C65.4-70.2 62.4-70.5 59.3-70.5L30.6-70.5C27.5-70.5 24.5-70.2 21.7-69.7C18.9-69.2 16.4-67.9 14.4-65.8C12.3-63.7 11.1-61.3 10.6-58.5C10.1-55.7 9.8-52.7 9.8-49.6L9.8-20.9C9.8-17.8 10.1-14.8 10.6-12C11.1-9.2 12.4-6.8 14.4-4.7C16.5-2.6 18.9-1.4 21.7-0.8C24.5-0.3 27.5 0 30.6 0L59.3 0C62.4 0 65.4-0.3 68.2-0.8C71-1.3 73.5-2.6 75.5-4.7C77.6-6.8 78.8-9.2 79.3-12C79.8-14.8 80.1-17.8 80.1-20.9L80.1-49.6C80.1-52.8 79.8-55.7 79.3-58.5C78.9-61.3 77.6-63.8 75.5-65.8Z"/>
   <path class="hierarchical-1:primary SFSymbolsPreview212121" d="M37.87-21.7C38.37-21.7 38.77-21.9 39.17-22.2C39.57-22.5 39.67-23 39.67-23.5L39.67-25.5L39.67-25.5C40.27-24.3 41.17-23.4 42.27-22.7C43.37-22 44.67-21.7 46.17-21.7C47.87-21.7 49.37-22.1 50.57-23C51.77-23.9 52.77-25 53.47-26.5C54.17-28 54.47-29.8 54.47-31.9C54.47-34 54.17-35.8 53.47-37.3C52.77-38.8 51.77-40 50.57-40.8C49.37-41.6 47.87-42 46.17-42C44.77-42 43.47-41.7 42.37-41C41.27-40.3 40.37-39.4 39.77-38.2L39.67-38.2L39.67-46.8C39.67-47.4 39.47-47.8 39.17-48.2C38.87-48.6 38.37-48.7 37.87-48.7C37.37-48.7 36.97-48.5 36.57-48.2C36.17-47.9 36.07-47.4 36.07-46.8L36.07-23.4C36.07-22.9 36.27-22.4 36.57-22.1C36.87-21.8 37.37-21.7 37.87-21.7ZM45.27-24.7C44.17-24.7 43.17-25 42.37-25.6C41.57-26.2 40.87-27 40.37-28.1C39.87-29.2 39.67-30.4 39.67-31.9C39.67-33.4 39.87-34.6 40.37-35.7C40.87-36.8 41.47-37.6 42.37-38.2C43.27-38.8 44.17-39.1 45.27-39.1C46.97-39.1 48.27-38.5 49.27-37.2C50.27-35.9 50.77-34.2 50.77-32C50.77-29.8 50.27-28.1 49.27-26.8C48.27-25.5 46.97-24.7 45.27-24.7ZM22.77-21.7C24.07-21.7 25.37-22 26.57-22.7C27.77-23.4 28.57-24.3 29.17-25.4L29.17-25.4L29.17-23.4C29.17-22.9 29.37-22.5 29.67-22.1C29.97-21.7 30.37-21.6 30.87-21.6C31.37-21.6 31.77-21.8 32.17-22.1C32.57-22.4 32.67-22.9 32.67-23.4L32.67-35.4C32.67-37.4 31.97-39 30.57-40.1C29.17-41.2 27.27-41.9 24.97-41.9C23.27-41.9 21.77-41.6 20.37-40.9C19.07-40.2 18.07-39.3 17.57-38.2C17.47-38 17.37-37.8 17.27-37.5C17.17-37.2 17.17-37.1 17.17-36.9C17.17-36.4 17.37-36.1 17.67-35.8C17.97-35.5 18.37-35.4 18.77-35.4C19.07-35.4 19.37-35.5 19.57-35.6C19.77-35.7 19.97-35.9 20.17-36.2C20.67-37.2 21.37-37.9 22.07-38.3C22.77-38.7 23.67-38.9 24.77-38.9C26.07-38.9 27.17-38.6 27.87-37.9C28.57-37.2 28.97-36.3 28.97-35.1L28.97-33.6L23.37-33.3C21.07-33.2 19.27-32.6 17.97-31.6C16.67-30.6 16.07-29.2 16.07-27.5C16.07-26.3 16.37-25.3 16.87-24.4C17.37-23.5 18.17-22.8 19.17-22.3C20.17-21.8 21.47-21.7 22.77-21.7ZM23.67-24.6C22.47-24.6 21.57-24.9 20.87-25.4C20.17-25.9 19.87-26.7 19.87-27.6C19.87-28.5 20.27-29.2 20.97-29.8C21.67-30.4 22.67-30.7 23.97-30.8L29.17-31.1L29.17-29.4C29.17-28.5 28.97-27.6 28.47-26.9C27.97-26.2 27.37-25.6 26.47-25.1C25.57-24.6 24.67-24.6 23.67-24.6ZM65.67-21.7C67.47-21.7 69.07-22.1 70.57-23C71.97-23.9 72.97-25 73.57-26.4C73.67-26.6 73.67-26.7 73.67-26.9C73.67-27.1 73.67-27.2 73.67-27.3C73.67-27.8 73.57-28.1 73.27-28.4C72.97-28.7 72.57-28.8 72.17-28.8C71.77-28.8 71.47-28.7 71.17-28.5C70.87-28.3 70.67-28 70.47-27.5C69.97-26.6 69.37-25.8 68.57-25.4C67.77-24.9 66.87-24.7 65.67-24.7C63.97-24.7 62.67-25.3 61.57-26.6C60.57-27.9 60.07-29.6 60.07-31.8C60.07-34 60.57-35.7 61.57-37C62.57-38.3 63.97-38.9 65.67-38.9C66.77-38.9 67.77-38.7 68.47-38.2C69.17-37.7 69.87-37 70.37-36C70.57-35.6 70.87-35.3 71.07-35.1C71.27-34.9 71.67-34.8 71.97-34.8C72.47-34.8 72.77-34.9 73.07-35.2C73.37-35.5 73.47-35.8 73.47-36.3C73.47-36.4 73.47-36.6 73.47-36.7C73.47-36.8 73.37-37 73.37-37.1C72.87-38.5 71.97-39.6 70.47-40.5C69.07-41.4 67.37-41.9 65.47-41.9C63.67-41.9 61.97-41.5 60.67-40.6C59.27-39.8 58.27-38.6 57.47-37C56.67-35.4 56.37-33.7 56.37-31.6C56.37-28.5 57.17-26 58.87-24.2C60.57-22.4 62.97-21.7 65.67-21.7Z"/>
  </g>
  <g id="Ultralight-S" transform="matrix(1 0 0 1 516.811 696)">
   <path class="hierarchical-0:tertiary SFSymbolsPreview8E8E8E" d="M72.131-64.3C70.731-65.8 68.931-66.8 66.731-67.4C64.531-68 61.531-68.3 57.731-68.3L27.731-68.3C24.231-68.3 21.331-68 19.131-67.4C16.931-66.8 15.131-65.8 13.731-64.3C12.331-62.9 11.331-61.1 10.631-59C10.031-56.9 9.731-54 9.731-50.4L9.731-20.5C9.731-16.6 10.031-13.6 10.631-11.4C11.231-9.2 12.231-7.4 13.631-6C15.131-4.6 17.031-3.6 19.131-3C21.231-2.4 24.331-2.1 28.131-2.1L57.531-2.1C61.331-2.1 64.331-2.4 66.531-3C68.731-3.6 70.531-4.6 71.931-6.1C73.431-7.6 74.431-9.4 75.031-11.5C75.631-13.6 75.931-16.7 75.931-20.5L75.931-49.9C75.931-53.7 75.631-56.8 75.031-58.9C74.631-61.1 73.531-62.9 72.131-64.3Z"/>
   <path class="hierarchical-1:primary SFSymbolsPreview212121" d="M35.488-21.7C35.688-21.7 35.788-21.7 35.888-21.8C35.988-21.9 35.988-22 35.988-22.2L35.988-27.6L35.988-27.6C36.488-25.8 37.388-24.3 38.688-23.3C39.988-22.2 41.588-21.7 43.388-21.7C44.988-21.7 46.388-22.1 47.588-23C48.788-23.8 49.788-25 50.488-26.5C51.188-28 51.488-29.7 51.488-31.6C51.488-33.5 51.188-35.2 50.488-36.7C49.788-38.2 48.888-39.3 47.588-40.2C46.388-41 44.988-41.5 43.388-41.5C41.588-41.5 39.988-41 38.588-39.9C37.288-38.8 36.388-37.4 35.888-35.6L35.888-35.6L35.888-48.3C35.888-48.5 35.788-48.6 35.688-48.7C35.588-48.8 35.488-48.9 35.288-48.9C35.088-48.9 34.988-48.8 34.888-48.7C34.788-48.6 34.788-48.5 34.788-48.3L34.788-22.4C34.788-22.2 34.788-22.1 34.888-22C35.188-21.7 35.288-21.7 35.488-21.7ZM43.288-22.6C41.888-22.6 40.588-23 39.488-23.7C38.388-24.5 37.588-25.5 36.988-26.8C36.388-28.1 36.088-29.7 36.088-31.4C36.088-33.1 36.388-34.7 36.988-36C37.588-37.3 38.488-38.4 39.488-39.2C40.588-40 41.888-40.4 43.288-40.4C45.388-40.4 47.188-39.6 48.488-37.9C49.788-36.3 50.488-34.1 50.488-31.5C50.488-28.8 49.788-26.7 48.488-25C47.188-23.4 45.388-22.6 43.288-22.6ZM22.288-21.7C23.988-21.7 25.488-22.1 26.888-23C28.288-23.9 29.188-25 29.588-26.3L29.588-26.3L29.588-22.3C29.588-22.1 29.588-22 29.688-21.9C29.788-21.8 29.888-21.7 29.988-21.7C30.188-21.7 30.288-21.8 30.388-21.9C30.488-22 30.488-22.1 30.488-22.3L30.488-34.9C30.488-36.9 29.888-38.5 28.688-39.7C27.488-40.9 25.788-41.5 23.688-41.5C21.888-41.5 20.388-41.1 19.188-40.3C17.988-39.5 17.188-38.4 16.688-37C16.588-36.8 16.588-36.6 16.588-36.4C16.588-36.2 16.488-36 16.488-35.9C16.488-35.8 16.588-35.6 16.688-35.6C16.788-35.5 16.888-35.5 17.088-35.5C17.188-35.5 17.288-35.5 17.388-35.6C17.488-35.7 17.488-35.8 17.588-35.9C17.888-37.3 18.588-38.4 19.688-39.3C20.788-40.1 22.088-40.5 23.788-40.5C25.588-40.5 26.988-40 28.088-38.9C29.088-37.9 29.588-36.5 29.588-34.8L29.588-33L22.688-32.5C20.488-32.3 18.788-31.8 17.688-30.9C16.588-30 15.988-28.7 15.988-27.1C15.988-26 16.288-25.1 16.788-24.3C17.288-23.5 18.088-22.9 18.988-22.4C19.888-21.9 20.988-21.7 22.288-21.7ZM22.388-22.6C20.888-22.6 19.588-23 18.588-23.9C17.588-24.7 17.088-25.8 17.088-27.1C17.088-28.3 17.588-29.4 18.588-30.1C19.588-30.9 20.988-31.4 22.988-31.5L29.688-32L29.688-28.9C29.688-27.7 29.388-26.7 28.688-25.7C27.988-24.7 27.188-24 26.088-23.4C24.888-22.9 23.688-22.6 22.388-22.6ZM62.388-21.6C64.188-21.6 65.688-22.1 67.088-23C68.488-23.9 69.388-25.2 69.788-26.7C69.788-26.8 69.788-26.9 69.888-27C69.888-27.1 69.888-27.2 69.888-27.3C69.888-27.4 69.888-27.5 69.788-27.6C69.688-27.7 69.588-27.7 69.488-27.7C69.388-27.7 69.188-27.7 69.188-27.6C69.188-27.5 69.088-27.4 68.988-27.3C68.588-25.8 67.688-24.6 66.488-23.8C65.288-23 63.888-22.6 62.388-22.6C60.088-22.6 58.288-23.4 56.988-25C55.688-26.6 54.988-28.8 54.988-31.5C54.988-34.3 55.688-36.4 56.988-38C58.288-39.6 60.088-40.4 62.288-40.4C63.788-40.4 65.188-40 66.388-39.2C67.588-38.4 68.388-37.2 68.888-35.7C68.888-35.6 68.988-35.4 69.088-35.4C69.188-35.4 69.288-35.3 69.388-35.3C69.488-35.3 69.688-35.3 69.688-35.4C69.688-35.5 69.788-35.6 69.788-35.7C69.788-35.8 69.788-35.9 69.788-36C69.788-36.1 69.788-36.2 69.688-36.2C69.288-37.8 68.388-39 66.988-40C65.588-41 64.088-41.4 62.288-41.4C60.588-41.4 59.088-41 57.788-40.2C56.488-39.4 55.588-38.2 54.888-36.7C54.188-35.2 53.888-33.5 53.888-31.5C53.888-28.5 54.688-26.1 56.188-24.3C57.688-22.5 59.788-21.6 62.388-21.6Z"/>
  </g>
 </g>
</svg>
