<?xml version="1.0" encoding="UTF-8"?>
<!--Generator: Apple Native CoreSVG 175-->
<!DOCTYPE svg
PUBLIC "-//W3C//DTD SVG 1.1//EN"
       "http://www.w3.org/Graphics/SVG/1.1/DTD/svg11.dtd">
<svg version="1.1" xmlns="http://www.w3.org/2000/svg" xmlns:xlink="http://www.w3.org/1999/xlink" width="3300" height="2200">
 <!--glyph: "", point size: 100.0, font version: "17.1d1e1", template writer version: "65.1"-->
 <style>.hierarchical-0:tertiary {fill:#8E8E8E}
.hierarchical-1:primary {fill:#212121}

.SFSymbolsPreview212121 {fill:#212121;opacity:1.0}
.SFSymbolsPreview8E8E8E {fill:#8E8E8E;opacity:1.0}
</style>
 <g id="Notes">
  <rect height="2200" id="artboard" style="fill:white;opacity:1" width="3300" x="0" y="0"/>
  <line style="fill:none;stroke:black;opacity:1;stroke-width:0.5;" x1="263" x2="3036" y1="292" y2="292"/>
  <text style="stroke:none;fill:black;font-family:sans-serif;font-size:13;font-weight:bold;" transform="matrix(1 0 0 1 263 322)">Weight/Scale Variations</text>
  <text style="stroke:none;fill:black;font-family:sans-serif;font-size:13;text-anchor:middle;" transform="matrix(1 0 0 1 559.711 322)">Ultralight</text>
  <text style="stroke:none;fill:black;font-family:sans-serif;font-size:13;text-anchor:middle;" transform="matrix(1 0 0 1 856.422 322)">Thin</text>
  <text style="stroke:none;fill:black;font-family:sans-serif;font-size:13;text-anchor:middle;" transform="matrix(1 0 0 1 1153.13 322)">Light</text>
  <text style="stroke:none;fill:black;font-family:sans-serif;font-size:13;text-anchor:middle;" transform="matrix(1 0 0 1 1449.84 322)">Regular</text>
  <text style="stroke:none;fill:black;font-family:sans-serif;font-size:13;text-anchor:middle;" transform="matrix(1 0 0 1 1746.56 322)">Medium</text>
  <text style="stroke:none;fill:black;font-family:sans-serif;font-size:13;text-anchor:middle;" transform="matrix(1 0 0 1 2043.27 322)">Semibold</text>
  <text style="stroke:none;fill:black;font-family:sans-serif;font-size:13;text-anchor:middle;" transform="matrix(1 0 0 1 2339.98 322)">Bold</text>
  <text style="stroke:none;fill:black;font-family:sans-serif;font-size:13;text-anchor:middle;" transform="matrix(1 0 0 1 2636.69 322)">Heavy</text>
  <text style="stroke:none;fill:black;font-family:sans-serif;font-size:13;text-anchor:middle;" transform="matrix(1 0 0 1 2933.4 322)">Black</text>
  <line style="fill:none;stroke:black;opacity:1;stroke-width:0.5;" x1="263" x2="3036" y1="1903" y2="1903"/>
  <g transform="matrix(1 0 0 1 263 1933)">
   <path d="M9.24805 0.830078Q10.8691 0.830078 12.2949 0.214844Q13.7207-0.400391 14.8096-1.49414Q15.8984-2.58789 16.5186-4.01367Q17.1387-5.43945 17.1387-7.05078Q17.1387-8.66211 16.5186-10.0879Q15.8984-11.5137 14.8047-12.6074Q13.7109-13.7012 12.2852-14.3164Q10.8594-14.9316 9.23828-14.9316Q7.62695-14.9316 6.20117-14.3164Q4.77539-13.7012 3.69141-12.6074Q2.60742-11.5137 1.9873-10.0879Q1.36719-8.66211 1.36719-7.05078Q1.36719-5.43945 1.9873-4.01367Q2.60742-2.58789 3.69629-1.49414Q4.78516-0.400391 6.21094 0.214844Q7.63672 0.830078 9.24805 0.830078ZM9.24805-0.654297Q7.91992-0.654297 6.7627-1.14746Q5.60547-1.64062 4.73145-2.51953Q3.85742-3.39844 3.36426-4.56055Q2.87109-5.72266 2.87109-7.05078Q2.87109-8.37891 3.35938-9.54102Q3.84766-10.7031 4.72168-11.582Q5.5957-12.4609 6.75293-12.9541Q7.91016-13.4473 9.23828-13.4473Q10.5762-13.4473 11.7334-12.9541Q12.8906-12.4609 13.7695-11.582Q14.6484-10.7031 15.1465-9.54102Q15.6445-8.37891 15.6445-7.05078Q15.6445-5.72266 15.1514-4.56055Q14.6582-3.39844 13.7842-2.51953Q12.9102-1.64062 11.748-1.14746Q10.5859-0.654297 9.24805-0.654297ZM5.6543-7.05078Q5.6543-6.72852 5.85938-6.52832Q6.06445-6.32812 6.40625-6.32812L8.51562-6.32812L8.51562-4.20898Q8.51562-3.88672 8.71094-3.67676Q8.90625-3.4668 9.23828-3.4668Q9.56055-3.4668 9.77051-3.67676Q9.98047-3.88672 9.98047-4.20898L9.98047-6.32812L12.0898-6.32812Q12.4219-6.32812 12.627-6.52832Q12.832-6.72852 12.832-7.05078Q12.832-7.38281 12.627-7.58789Q12.4219-7.79297 12.0898-7.79297L9.98047-7.79297L9.98047-9.90234Q9.98047-10.2344 9.77051-10.4443Q9.56055-10.6543 9.23828-10.6543Q8.90625-10.6543 8.71094-10.4443Q8.51562-10.2344 8.51562-9.90234L8.51562-7.79297L6.40625-7.79297Q6.06445-7.79297 5.85938-7.58789Q5.6543-7.38281 5.6543-7.05078Z"/>
  </g>
  <g transform="matrix(1 0 0 1 281.867 1933)">
   <path d="M11.709 2.91016Q13.75 2.91016 15.5518 2.12891Q17.3535 1.34766 18.7305-0.0292969Q20.1074-1.40625 20.8887-3.20801Q21.6699-5.00977 21.6699-7.05078Q21.6699-9.0918 20.8887-10.8936Q20.1074-12.6953 18.7305-14.0723Q17.3535-15.4492 15.5469-16.2305Q13.7402-17.0117 11.6992-17.0117Q9.6582-17.0117 7.85645-16.2305Q6.05469-15.4492 4.68262-14.0723Q3.31055-12.6953 2.5293-10.8936Q1.74805-9.0918 1.74805-7.05078Q1.74805-5.00977 2.5293-3.20801Q3.31055-1.40625 4.6875-0.0292969Q6.06445 1.34766 7.86621 2.12891Q9.66797 2.91016 11.709 2.91016ZM11.709 1.25Q9.98047 1.25 8.47656 0.605469Q6.97266-0.0390625 5.83496-1.17676Q4.69727-2.31445 4.05762-3.81836Q3.41797-5.32227 3.41797-7.05078Q3.41797-8.7793 4.05762-10.2832Q4.69727-11.7871 5.83008-12.9297Q6.96289-14.0723 8.4668-14.7119Q9.9707-15.3516 11.6992-15.3516Q13.4277-15.3516 14.9316-14.7119Q16.4355-14.0723 17.5781-12.9297Q18.7207-11.7871 19.3652-10.2832Q20.0098-8.7793 20.0098-7.05078Q20.0098-5.32227 19.3701-3.81836Q18.7305-2.31445 17.5928-1.17676Q16.4551-0.0390625 14.9463 0.605469Q13.4375 1.25 11.709 1.25ZM7.17773-7.05078Q7.17773-6.69922 7.41211-6.47461Q7.64648-6.25 8.01758-6.25L10.8887-6.25L10.8887-3.36914Q10.8887-2.99805 11.1133-2.76855Q11.3379-2.53906 11.6895-2.53906Q12.0605-2.53906 12.29-2.76855Q12.5195-2.99805 12.5195-3.36914L12.5195-6.25L15.4004-6.25Q15.7715-6.25 16.001-6.47461Q16.2305-6.69922 16.2305-7.05078Q16.2305-7.42188 16.001-7.65137Q15.7715-7.88086 15.4004-7.88086L12.5195-7.88086L12.5195-10.752Q12.5195-11.1328 12.29-11.3623Q12.0605-11.5918 11.6895-11.5918Q11.3379-11.5918 11.1133-11.3574Q10.8887-11.123 10.8887-10.752L10.8887-7.88086L8.01758-7.88086Q7.63672-7.88086 7.40723-7.65137Q7.17773-7.42188 7.17773-7.05078Z"/>
  </g>
  <g transform="matrix(1 0 0 1 305.646 1933)">
   <path d="M14.9707 5.66406Q17.0605 5.66406 18.96 5.01465Q20.8594 4.36523 22.4512 3.19336Q24.043 2.02148 25.2197 0.429688Q26.3965-1.16211 27.0459-3.06641Q27.6953-4.9707 27.6953-7.05078Q27.6953-9.14062 27.0459-11.04Q26.3965-12.9395 25.2197-14.5312Q24.043-16.123 22.4512-17.2998Q20.8594-18.4766 18.9551-19.126Q17.0508-19.7754 14.9609-19.7754Q12.8711-19.7754 10.9717-19.126Q9.07227-18.4766 7.48535-17.2998Q5.89844-16.123 4.72168-14.5312Q3.54492-12.9395 2.90039-11.04Q2.25586-9.14062 2.25586-7.05078Q2.25586-4.9707 2.90527-3.06641Q3.55469-1.16211 4.72656 0.429688Q5.89844 2.02148 7.49023 3.19336Q9.08203 4.36523 10.9814 5.01465Q12.8809 5.66406 14.9707 5.66406ZM14.9707 3.84766Q13.1641 3.84766 11.5283 3.2959Q9.89258 2.74414 8.53516 1.74805Q7.17773 0.751953 6.17676-0.610352Q5.17578-1.97266 4.62891-3.6084Q4.08203-5.24414 4.08203-7.05078Q4.08203-8.86719 4.62891-10.5029Q5.17578-12.1387 6.17188-13.501Q7.16797-14.8633 8.52539-15.8594Q9.88281-16.8555 11.5186-17.4023Q13.1543-17.9492 14.9609-17.9492Q16.7773-17.9492 18.4131-17.4023Q20.0488-16.8555 21.4111-15.8594Q22.7734-14.8633 23.7695-13.501Q24.7656-12.1387 25.3174-10.5029Q25.8691-8.86719 25.8691-7.05078Q25.8789-5.24414 25.332-3.6084Q24.7852-1.97266 23.7842-0.610352Q22.7832 0.751953 21.4209 1.74805Q20.0586 2.74414 18.4229 3.2959Q16.7871 3.84766 14.9707 3.84766ZM9.19922-7.05078Q9.19922-6.66992 9.45801-6.4209Q9.7168-6.17188 10.1172-6.17188L14.0625-6.17188L14.0625-2.2168Q14.0625-1.81641 14.3115-1.55762Q14.5605-1.29883 14.9512-1.29883Q15.3516-1.29883 15.6104-1.55273Q15.8691-1.80664 15.8691-2.2168L15.8691-6.17188L19.8242-6.17188Q20.2246-6.17188 20.4785-6.4209Q20.7324-6.66992 20.7324-7.05078Q20.7324-7.46094 20.4785-7.71484Q20.2246-7.96875 19.8242-7.96875L15.8691-7.96875L15.8691-11.9141Q15.8691-12.3242 15.6104-12.583Q15.3516-12.8418 14.9512-12.8418Q14.5605-12.8418 14.3115-12.583Q14.0625-12.3242 14.0625-11.9141L14.0625-7.96875L10.1172-7.96875Q9.70703-7.96875 9.45312-7.71484Q9.19922-7.46094 9.19922-7.05078Z"/>
  </g>
  <text style="stroke:none;fill:black;font-family:sans-serif;font-size:13;font-weight:bold;" transform="matrix(1 0 0 1 263 1953)">Design Variations</text>
  <text style="stroke:none;fill:black;font-family:sans-serif;font-size:13;" transform="matrix(1 0 0 1 263 1971)">Symbols are supported in up to nine weights and three scales.</text>
  <text style="stroke:none;fill:black;font-family:sans-serif;font-size:13;" transform="matrix(1 0 0 1 263 1989)">For optimal layout with text and other symbols, vertically align</text>
  <text style="stroke:none;fill:black;font-family:sans-serif;font-size:13;" transform="matrix(1 0 0 1 263 2007)">symbols with the adjacent text.</text>
  <line style="fill:none;stroke:#00AEEF;stroke-width:0.5;opacity:1.0;" x1="776" x2="776" y1="1919" y2="1933"/>
  <g transform="matrix(1 0 0 1 776 1933)">
   <path d="M3.31055 0.15625Q3.70117 0.15625 3.91602-0.00976562Q4.13086-0.175781 4.26758-0.585938L5.52734-4.0332L11.2891-4.0332L12.5488-0.585938Q12.6855-0.175781 12.9004-0.00976562Q13.1152 0.15625 13.4961 0.15625Q13.8867 0.15625 14.1162-0.0585938Q14.3457-0.273438 14.3457-0.644531Q14.3457-0.869141 14.2383-1.17188L9.6582-13.3691Q9.48242-13.8184 9.17969-14.043Q8.87695-14.2676 8.4082-14.2676Q7.5-14.2676 7.17773-13.3789L2.59766-1.16211Q2.49023-0.859375 2.49023-0.634766Q2.49023-0.263672 2.70996-0.0537109Q2.92969 0.15625 3.31055 0.15625ZM6.00586-5.51758L8.37891-12.0898L8.42773-12.0898L10.8008-5.51758Z"/>
  </g>
  <line style="fill:none;stroke:#00AEEF;stroke-width:0.5;opacity:1.0;" x1="793.197" x2="793.197" y1="1919" y2="1933"/>
  <text style="stroke:none;fill:black;font-family:sans-serif;font-size:13;font-weight:bold;" transform="matrix(1 0 0 1 776 1953)">Margins</text>
  <text style="stroke:none;fill:black;font-family:sans-serif;font-size:13;" transform="matrix(1 0 0 1 776 1971)">Leading and trailing margins on the left and right side of each symbol</text>
  <text style="stroke:none;fill:black;font-family:sans-serif;font-size:13;" transform="matrix(1 0 0 1 776 1989)">can be adjusted by modifying the x-location of the margin guidelines.</text>
  <text style="stroke:none;fill:black;font-family:sans-serif;font-size:13;" transform="matrix(1 0 0 1 776 2007)">Modifications are automatically applied proportionally to all</text>
  <text style="stroke:none;fill:black;font-family:sans-serif;font-size:13;" transform="matrix(1 0 0 1 776 2025)">scales and weights.</text>
  <g transform="matrix(1 0 0 1 1289 1933)">
   <path d="M2.8418 1.86523L4.54102 3.57422Q5.18555 4.22852 5.90332 4.17969Q6.62109 4.13086 7.31445 3.35938L18.0078-8.42773L17.041-9.4043L6.42578 2.27539Q6.16211 2.57812 5.89355 2.61719Q5.625 2.65625 5.27344 2.30469L4.10156 1.14258Q3.75 0.791016 3.79395 0.522461Q3.83789 0.253906 4.14062-0.0195312L15.6152-10.8203L14.6387-11.7871L3.04688-0.898438Q2.30469-0.214844 2.25098 0.498047Q2.19727 1.21094 2.8418 1.86523ZM9.25781-16.3281Q8.94531-16.0254 8.90625-15.6348Q8.86719-15.2441 9.04297-14.9512Q9.21875-14.6777 9.55566-14.541Q9.89258-14.4043 10.3809-14.5215Q11.4746-14.7754 12.5977-14.7314Q13.7207-14.6875 14.7949-13.9844L14.209-12.5293Q13.9551-11.9043 14.0674-11.4404Q14.1797-10.9766 14.5801-10.5664L16.875-8.25195Q17.2363-7.88086 17.5781-7.82227Q17.9199-7.76367 18.3398-7.8418L19.4043-8.03711L20.0684-7.36328L20.0293-6.80664Q20-6.43555 20.1221-6.12305Q20.2441-5.81055 20.6055-5.44922L21.3672-4.70703Q21.7285-4.3457 22.1533-4.33105Q22.5781-4.31641 22.9297-4.66797L25.8398-7.58789Q26.1914-7.93945 26.1816-8.35449Q26.1719-8.76953 25.8105-9.13086L25.0391-9.89258Q24.6875-10.2539 24.3799-10.3857Q24.0723-10.5176 23.7109-10.4883L23.1348-10.4395L22.4902-11.0742L22.7344-12.1973Q22.832-12.6172 22.6953-12.9834Q22.5586-13.3496 22.1191-13.7891L19.9219-15.9766Q18.6719-17.2168 17.2607-17.8369Q15.8496-18.457 14.4189-18.4814Q12.9883-18.5059 11.665-17.959Q10.3418-17.4121 9.25781-16.3281ZM10.752-15.957Q11.6602-16.6211 12.7002-16.9043Q13.7402-17.1875 14.8047-17.085Q15.8691-16.9824 16.8701-16.5137Q17.8711-16.0449 18.7012-15.2051L21.1328-12.793Q21.3086-12.6172 21.3525-12.4512Q21.3965-12.2852 21.3379-12.0312L21.0156-10.5469L22.5195-9.0625L23.5059-9.12109Q23.6914-9.13086 23.7891-9.09668Q23.8867-9.0625 24.0332-8.91602L24.6094-8.33984L22.168-5.89844L21.5918-6.47461Q21.4453-6.62109 21.4062-6.71875Q21.3672-6.81641 21.377-7.01172L21.4453-7.98828L19.9512-9.47266L18.4277-9.21875Q18.1836-9.16992 18.042-9.2041Q17.9004-9.23828 17.7148-9.41406L15.7129-11.416Q15.5176-11.5918 15.4932-11.7529Q15.4688-11.9141 15.5859-12.1875L16.4648-14.2773Q15.293-15.3711 13.8281-15.791Q12.3633-16.2109 10.8398-15.7617Q10.7227-15.7324 10.6885-15.8057Q10.6543-15.8789 10.752-15.957Z"/>
  </g>
  <text style="stroke:none;fill:black;font-family:sans-serif;font-size:13;font-weight:bold;" transform="matrix(1 0 0 1 1289 1953)">Exporting</text>
  <text style="stroke:none;fill:black;font-family:sans-serif;font-size:13;" transform="matrix(1 0 0 1 1289 1971)">Symbols should be outlined when exporting to ensure the</text>
  <text style="stroke:none;fill:black;font-family:sans-serif;font-size:13;" transform="matrix(1 0 0 1 1289 1989)">design is preserved when submitting to Xcode.</text>
  <text id="template-version" style="stroke:none;fill:black;font-family:sans-serif;font-size:13;text-anchor:end;" transform="matrix(1 0 0 1 3036 1933)">Template v.3.0</text>
  <text style="stroke:none;fill:black;font-family:sans-serif;font-size:13;text-anchor:end;" transform="matrix(1 0 0 1 3036 1951)">Requires Xcode 13 or greater</text>
  <text id="descriptive-name" style="stroke:none;fill:black;font-family:sans-serif;font-size:13;text-anchor:end;" transform="matrix(1 0 0 1 3036 1969)">Generated from lookahead.app.fill</text>
  <text style="stroke:none;fill:black;font-family:sans-serif;font-size:13;text-anchor:end;" transform="matrix(1 0 0 1 3036 1987)">Typeset at 100 points</text>
  <text style="stroke:none;fill:black;font-family:sans-serif;font-size:13;" transform="matrix(1 0 0 1 263 726)">Small</text>
  <text style="stroke:none;fill:black;font-family:sans-serif;font-size:13;" transform="matrix(1 0 0 1 263 1156)">Medium</text>
  <text style="stroke:none;fill:black;font-family:sans-serif;font-size:13;" transform="matrix(1 0 0 1 263 1586)">Large</text>
 </g>
 <g id="Guides">
  <g id="H-reference" style="fill:#27AAE1;stroke:none;" transform="matrix(1 0 0 1 339 696)">
   <path d="M0.993347 0L3.6377 0L29.3282-67.1326L30.0301-67.1326L30.0301-70.459L28.1227-70.459ZM11.6882-24.4797L46.9818-24.4797L46.2311-26.7288L12.4382-26.7288ZM55.1193 0L57.7637 0L30.6381-70.459L29.4327-70.459L29.4327-67.1326Z"/>
  </g>
  <line id="Baseline-S" style="fill:none;stroke:#27AAE1;opacity:1;stroke-width:0.5;" x1="263" x2="3036" y1="696" y2="696"/>
  <line id="Capline-S" style="fill:none;stroke:#27AAE1;opacity:1;stroke-width:0.5;" x1="263" x2="3036" y1="625.541" y2="625.541"/>
  <g id="H-reference" style="fill:#27AAE1;stroke:none;" transform="matrix(1 0 0 1 339 1126)">
   <path d="M0.993347 0L3.6377 0L29.3282-67.1326L30.0301-67.1326L30.0301-70.459L28.1227-70.459ZM11.6882-24.4797L46.9818-24.4797L46.2311-26.7288L12.4382-26.7288ZM55.1193 0L57.7637 0L30.6381-70.459L29.4327-70.459L29.4327-67.1326Z"/>
  </g>
  <line id="Baseline-M" style="fill:none;stroke:#27AAE1;opacity:1;stroke-width:0.5;" x1="263" x2="3036" y1="1126" y2="1126"/>
  <line id="Capline-M" style="fill:none;stroke:#27AAE1;opacity:1;stroke-width:0.5;" x1="263" x2="3036" y1="1055.54" y2="1055.54"/>
  <g id="H-reference" style="fill:#27AAE1;stroke:none;" transform="matrix(1 0 0 1 339 1556)">
   <path d="M0.993347 0L3.6377 0L29.3282-67.1326L30.0301-67.1326L30.0301-70.459L28.1227-70.459ZM11.6882-24.4797L46.9818-24.4797L46.2311-26.7288L12.4382-26.7288ZM55.1193 0L57.7637 0L30.6381-70.459L29.4327-70.459L29.4327-67.1326Z"/>
  </g>
  <line id="Baseline-L" style="fill:none;stroke:#27AAE1;opacity:1;stroke-width:0.5;" x1="263" x2="3036" y1="1556" y2="1556"/>
  <line id="Capline-L" style="fill:none;stroke:#27AAE1;opacity:1;stroke-width:0.5;" x1="263" x2="3036" y1="1485.54" y2="1485.54"/>
  <line id="left-margin-Ultralight-S" style="fill:none;stroke:#00AEEF;stroke-width:0.5;opacity:1.0;" x1="516.811" x2="516.811" y1="600.73" y2="720.135"/>
  <line id="right-margin-Ultralight-S" style="fill:none;stroke:#00AEEF;stroke-width:0.5;opacity:1.0;" x1="602.611" x2="602.611" y1="600.73" y2="720.135"/>
  <line id="left-margin-Regular-S" style="fill:none;stroke:#00AEEF;stroke-width:0.5;opacity:1.0;" x1="1404.89" x2="1404.89" y1="600.73" y2="720.135"/>
  <line id="right-margin-Regular-S" style="fill:none;stroke:#00AEEF;stroke-width:0.5;opacity:1.0;" x1="1494.79" x2="1494.79" y1="600.73" y2="720.135"/>
  <line id="left-margin-Black-S" style="fill:none;stroke:#00AEEF;stroke-width:0.5;opacity:1.0;" x1="2886" x2="2886" y1="600.73" y2="720.135"/>
  <line id="right-margin-Black-S" style="fill:none;stroke:#00AEEF;stroke-width:0.5;opacity:1.0;" x1="2980.8" x2="2980.8" y1="600.73" y2="720.135"/>
 </g>
 <g id="Symbols">
  <g id="Black-S" transform="matrix(1 0 0 1 2886 696)">
   <path class="hierarchical-0:tertiary SFSymbolsPreview8E8E8E" d="M79.49-67.3C77.39-69.3 74.99-70.8 72.19-71.6C69.39-72.4 65.69-72.9 61.09-72.9L33.69-72.9C29.09-72.9 25.39-72.5 22.59-71.6C19.79-70.8 17.29-69.3 15.29-67.3C13.29-65.3 11.89-62.9 10.99-60.1C10.19-57.3 9.79-53.6 9.79-49L9.79-21.6C9.79-17 10.19-13.3 10.99-10.5C11.79-7.7 13.29-5.3 15.29-3.3C17.39-1.3 19.79 0.2 22.59 1C25.39 1.8 29.09 2.3 33.69 2.3L61.09 2.3C65.69 2.3 69.39 1.9 72.19 1C74.99 0.2 77.49-1.3 79.49-3.3C81.49-5.3 82.89-7.7 83.79-10.5C84.59-13.3 84.99-17 84.99-21.6L84.99-49C84.99-53.6 84.59-57.3 83.79-60.2C82.99-62.9 81.59-65.3 79.49-67.3Z"/>
   <path class="hierarchical-1:primary SFSymbolsPreview212121" d="M40.01-18.6C41.81-20.2 43.21-22.3 44.21-25.1C45.21-27.9 45.71-31.1 45.71-34.9C45.71-38.7 45.21-41.9 44.21-44.7C43.21-47.5 41.81-49.7 40.01-51.2C38.21-52.7 36.11-53.5 33.71-53.5C31.31-53.5 29.21-52.7 27.41-51.2C25.61-49.7 24.21-47.5 23.21-44.7C22.21-41.9 21.71-38.7 21.71-34.9C21.71-31.1 22.21-27.9 23.21-25.1C24.21-22.3 25.61-20.1 27.41-18.6C29.21-17.1 31.31-16.3 33.71-16.3C36.11-16.2 38.21-17 40.01-18.6ZM30.81-24.1C30.01-25.1 29.31-26.6 28.81-28.4C28.31-30.2 28.11-32.4 28.11-34.8C28.11-37.3 28.31-39.4 28.81-41.3C29.31-43.2 29.91-44.6 30.81-45.6C31.61-46.6 32.61-47.1 33.81-47.1C34.91-47.1 35.91-46.6 36.71-45.6C37.51-44.6 38.21-43.1 38.71-41.3C39.21-39.5 39.41-37.3 39.41-34.9C39.41-32.4 39.21-30.3 38.71-28.4C38.21-26.5 37.61-25.1 36.71-24.1C35.81-23.1 34.91-22.6 33.81-22.6C32.61-22.6 31.61-23.1 30.81-24.1ZM66.31-18.6C68.11-20.2 69.51-22.3 70.51-25.1C71.51-27.9 72.01-31.1 72.01-34.9C72.01-38.7 71.51-41.9 70.51-44.7C69.51-47.5 68.11-49.7 66.31-51.2C64.51-52.7 62.41-53.5 60.01-53.5C57.61-53.5 55.51-52.7 53.71-51.2C51.91-49.7 50.51-47.5 49.51-44.7C48.51-41.9 48.01-38.7 48.01-34.9C48.01-31.1 48.51-27.9 49.51-25.1C50.51-22.3 51.91-20.1 53.71-18.6C55.51-17.1 57.61-16.3 60.01-16.3C62.41-16.3 64.51-17 66.31-18.6ZM57.11-24.1C56.31-25.1 55.61-26.6 55.11-28.4C54.61-30.2 54.41-32.4 54.41-34.8C54.41-37.3 54.61-39.4 55.11-41.3C55.61-43.2 56.21-44.6 57.11-45.6C57.91-46.6 58.91-47.1 60.11-47.1C61.21-47.1 62.21-46.6 63.01-45.6C63.81-44.6 64.51-43.1 65.01-41.3C65.51-39.5 65.71-37.3 65.71-34.9C65.71-32.4 65.51-30.3 65.01-28.4C64.51-26.5 63.91-25.1 63.01-24.1C62.11-23.1 61.21-22.6 60.11-22.6C58.91-22.6 57.91-23.1 57.11-24.1ZM66.31-30.7C67.31-31.7 67.71-33 67.71-34.7C67.71-36.3 67.21-37.6 66.31-38.6C65.41-39.6 64.11-40.1 62.51-40.1C60.91-40.1 59.71-39.6 58.71-38.6C57.71-37.6 57.31-36.3 57.31-34.7C57.31-33 57.81-31.7 58.71-30.7C59.61-29.7 60.91-29.2 62.51-29.2C64.11-29.2 65.31-29.7 66.31-30.7ZM63.11-35.6C62.81-35.9 62.71-36.2 62.61-36.6C62.51-37 62.61-37.4 62.71-37.7C62.81-38 63.11-38.2 63.51-38.3C63.81-38.3 64.11-38.2 64.41-38C64.71-37.7 64.91-37.4 65.01-37C65.11-36.6 65.01-36.2 64.81-35.9C64.61-35.6 64.41-35.4 64.01-35.3C63.61-35.2 63.31-35.4 63.11-35.6ZM40.01-30.7C41.01-31.7 41.41-33 41.41-34.7C41.41-36.3 40.91-37.6 40.01-38.6C39.11-39.6 37.81-40.1 36.21-40.1C34.61-40.1 33.41-39.6 32.41-38.6C31.41-37.6 31.01-36.3 31.01-34.7C31.01-33 31.51-31.7 32.41-30.7C33.31-29.7 34.61-29.2 36.21-29.2C37.81-29.2 39.01-29.7 40.01-30.7ZM36.81-35.6C36.51-35.9 36.41-36.2 36.31-36.6C36.21-37 36.31-37.4 36.41-37.7C36.51-38 36.81-38.2 37.21-38.3C37.51-38.3 37.81-38.2 38.11-38C38.41-37.7 38.61-37.4 38.71-37C38.81-36.6 38.71-36.2 38.51-35.9C38.31-35.6 38.11-35.4 37.71-35.3C37.31-35.2 37.01-35.4 36.81-35.6Z"/>
  </g>
  <g id="Regular-S" transform="matrix(1 0 0 1 1404.89 696)">
   <path class="hierarchical-0:tertiary SFSymbolsPreview8E8E8E" d="M75.5-65.8C73.4-67.9 71-69.2 68.2-69.7C65.4-70.2 62.4-70.5 59.3-70.5L30.6-70.5C27.5-70.5 24.5-70.2 21.7-69.7C18.9-69.2 16.4-67.9 14.4-65.8C12.3-63.7 11.1-61.3 10.6-58.5C10.1-55.7 9.8-52.7 9.8-49.6L9.8-20.9C9.8-17.8 10.1-14.8 10.6-12C11.1-9.2 12.4-6.8 14.4-4.7C16.5-2.6 18.9-1.4 21.7-0.8C24.5-0.3 27.5 0 30.6 0L59.3 0C62.4 0 65.4-0.3 68.2-0.8C71-1.3 73.5-2.6 75.5-4.7C77.6-6.8 78.8-9.2 79.3-12C79.8-14.8 80.1-17.8 80.1-20.9L80.1-49.6C80.1-52.8 79.8-55.7 79.3-58.5C78.9-61.3 77.6-63.8 75.5-65.8Z"/>
   <path class="hierarchical-1:primary SFSymbolsPreview212121" d="M38.1-20C39.7-21.4 40.9-23.4 41.8-25.9C42.7-28.4 43.2-31.4 43.2-34.8C43.2-38.2 42.7-41.1 41.8-43.7C40.9-46.3 39.7-48.2 38.1-49.6C36.5-51 34.8-51.7 32.9-51.7C31-51.7 29.3-51 27.7-49.6C26.1-48.2 24.9-46.2 24-43.7C23.1-41.2 22.6-38.2 22.6-34.8C22.6-31.4 23.1-28.5 24-25.9C24.9-23.4 26.2-21.4 27.7-20C29.3-18.6 31-17.9 32.9-17.9C34.8-17.9 36.5-18.6 38.1-20ZM29.3-22.6C28.2-23.8 27.3-25.4 26.6-27.5C25.9-29.6 25.6-32 25.6-34.8C25.6-37.6 25.9-40 26.6-42.1C27.3-44.2 28.2-45.8 29.3-47C30.4-48.2 31.6-48.7 32.9-48.7C34.2-48.7 35.4-48.1 36.6-47C37.8-45.9 38.6-44.2 39.3-42.1C40-40 40.3-37.6 40.3-34.8C40.3-32 40-29.6 39.3-27.5C38.6-25.4 37.7-23.8 36.6-22.6C35.5-21.4 34.3-20.9 32.9-20.9C31.6-20.9 30.4-21.5 29.3-22.6ZM61.2-20C62.7-21.4 64-23.4 64.9-25.9C65.8-28.4 66.3-31.4 66.3-34.8C66.3-38.2 65.8-41.1 64.9-43.7C64-46.3 62.7-48.2 61.2-49.6C59.7-51 57.9-51.7 56-51.7C54.1-51.7 52.4-51 50.8-49.6C49.2-48.2 48-46.2 47.1-43.7C46.2-41.2 45.7-38.2 45.7-34.8C45.7-31.4 46.2-28.5 47.1-25.9C48-23.4 49.2-21.4 50.8-20C52.4-18.6 54.1-17.9 56-17.9C57.9-17.9 59.7-18.6 61.2-20ZM52.4-22.6C51.3-23.8 50.4-25.4 49.7-27.5C49-29.6 48.7-32 48.7-34.8C48.7-37.6 49-40 49.7-42.1C50.4-44.2 51.3-45.8 52.4-47C53.5-48.2 54.7-48.7 56-48.7C57.3-48.7 58.5-48.1 59.6-46.9C60.7-45.7 61.6-44.1 62.3-42C63-39.9 63.3-37.5 63.3-34.7C63.3-31.9 63-29.5 62.3-27.4C61.6-25.3 60.7-23.7 59.6-22.5C58.5-21.3 57.3-20.8 56-20.8C54.7-20.9 53.5-21.5 52.4-22.6ZM63.7-29.8C64.7-30.8 65.1-32.1 65.1-33.8C65.1-35.4 64.6-36.7 63.7-37.7C62.8-38.7 61.5-39.2 59.9-39.2C58.3-39.2 57.1-38.7 56.1-37.7C55.1-36.7 54.7-35.4 54.7-33.8C54.7-32.2 55.2-30.8 56.1-29.8C57-28.8 58.3-28.3 59.9-28.3C61.5-28.3 62.8-28.8 63.7-29.8ZM60.5-34.7C60.2-34.9 60.1-35.3 60-35.7C59.9-36.1 60-36.5 60.1-36.8C60.2-37.1 60.5-37.3 60.9-37.4C61.2-37.4 61.5-37.3 61.8-37.1C62.1-36.9 62.3-36.5 62.4-36.1C62.5-35.7 62.4-35.3 62.2-35C62-34.7 61.8-34.5 61.4-34.4C61-34.3 60.7-34.5 60.5-34.7ZM40.6-29.8C41.6-30.8 42-32.1 42-33.8C42-35.4 41.5-36.7 40.6-37.7C39.7-38.7 38.4-39.2 36.8-39.2C35.2-39.2 34-38.7 33-37.7C32-36.7 31.6-35.4 31.6-33.8C31.6-32.2 32.1-30.8 33-29.8C33.9-28.8 35.2-28.3 36.8-28.3C38.4-28.3 39.6-28.8 40.6-29.8ZM37.3-34.7C37-34.9 36.9-35.3 36.8-35.7C36.7-36.1 36.7-36.5 36.9-36.8C37.1-37.1 37.3-37.3 37.7-37.4C38-37.4 38.3-37.3 38.6-37.1C38.9-36.9 39-36.5 39.1-36.1C39.2-35.7 39.1-35.3 38.9-35C38.7-34.7 38.5-34.5 38.1-34.4C37.9-34.3 37.6-34.5 37.3-34.7Z"/>
  </g>
  <g id="Ultralight-S" transform="matrix(1 0 0 1 516.811 696)">
   <path class="hierarchical-0:tertiary SFSymbolsPreview8E8E8E" d="M72.131-64.3C70.731-65.8 68.931-66.8 66.731-67.4C64.531-68 61.531-68.3 57.731-68.3L27.731-68.3C24.231-68.3 21.331-68 19.131-67.4C16.931-66.8 15.131-65.8 13.731-64.3C12.331-62.9 11.331-61.1 10.631-59C10.031-56.9 9.731-54 9.731-50.4L9.731-20.5C9.731-16.6 10.031-13.6 10.631-11.4C11.231-9.2 12.231-7.4 13.631-6C15.131-4.6 17.031-3.6 19.131-3C21.231-2.4 24.331-2.1 28.131-2.1L57.531-2.1C61.331-2.1 64.331-2.4 66.531-3C68.731-3.6 70.531-4.6 71.931-6.1C73.431-7.6 74.431-9.4 75.031-11.5C75.631-13.6 75.931-16.7 75.931-20.5L75.931-49.9C75.931-53.7 75.631-56.8 75.031-58.9C74.631-61.1 73.531-62.9 72.131-64.3Z"/>
   <path class="hierarchical-1:primary SFSymbolsPreview212121" d="M36.39-20.9C37.79-22.3 38.89-24.2 39.69-26.6C40.49-29 40.89-31.7 40.89-34.8C40.89-37.9 40.49-40.6 39.69-43C38.89-45.4 37.79-47.3 36.39-48.7C34.99-50.1 33.49-50.8 31.79-50.8C30.09-50.8 28.59-50.1 27.19-48.7C25.79-47.3 24.69-45.4 23.89-43C23.09-40.6 22.69-37.9 22.69-34.8C22.69-31.7 23.09-29 23.89-26.6C24.69-24.2 25.79-22.3 27.19-20.9C28.59-19.5 30.09-18.8 31.79-18.8C33.49-18.9 34.99-19.6 36.39-20.9ZM27.59-21.9C26.39-23.2 25.39-25 24.69-27.2C23.99-29.4 23.59-32 23.59-34.8C23.59-37.7 23.99-40.2 24.69-42.4C25.39-44.6 26.39-46.4 27.59-47.7C28.79-49 30.19-49.6 31.69-49.6C33.19-49.6 34.59-48.9 35.79-47.6C36.99-46.3 37.99-44.5 38.69-42.3C39.39-40.1 39.79-37.5 39.79-34.7C39.79-31.8 39.39-29.3 38.69-27C37.99-24.7 36.99-23 35.79-21.7C34.59-20.4 33.19-19.8 31.69-19.8C30.19-19.9 28.89-20.6 27.59-21.9ZM57.69-20.9C59.09-22.3 60.19-24.2 60.99-26.6C61.79-29 62.19-31.7 62.19-34.8C62.19-37.9 61.79-40.6 60.99-43C60.19-45.4 59.09-47.3 57.69-48.7C56.29-50.1 54.79-50.8 53.09-50.8C51.39-50.8 49.89-50.1 48.49-48.7C47.09-47.3 45.99-45.4 45.19-43C44.39-40.6 43.99-37.9 43.99-34.8C43.99-31.7 44.39-29 45.19-26.6C45.99-24.2 47.09-22.3 48.49-20.9C49.89-19.5 51.39-18.8 53.09-18.8C54.79-18.9 56.29-19.6 57.69-20.9ZM48.99-21.9C47.79-23.2 46.79-25 46.09-27.2C45.39-29.4 44.99-32 44.99-34.8C44.99-37.7 45.39-40.2 46.09-42.5C46.79-44.8 47.79-46.5 48.99-47.8C50.19-49.1 51.59-49.7 53.09-49.7C54.59-49.7 55.99-49 57.19-47.7C58.39-46.4 59.39-44.6 60.09-42.4C60.79-40.2 61.19-37.6 61.19-34.8C61.19-31.9 60.79-29.4 60.09-27.1C59.39-24.8 58.39-23.1 57.19-21.8C55.99-20.5 54.59-19.9 53.09-19.9C51.59-19.9 50.19-20.6 48.99-21.9ZM60.79-30.2C61.69-31.1 62.09-32.3 62.09-33.7C62.09-35.2 61.69-36.3 60.79-37.2C59.89-38.1 58.79-38.5 57.39-38.5C55.99-38.5 54.89-38.1 53.99-37.2C53.09-36.3 52.69-35.1 52.69-33.7C52.69-32.2 53.09-31.1 53.99-30.2C54.89-29.3 55.99-28.9 57.39-28.9C58.79-28.8 59.89-29.3 60.79-30.2ZM57.99-34.4C57.69-34.6 57.59-34.9 57.49-35.3C57.39-35.7 57.49-36 57.59-36.3C57.69-36.6 57.99-36.8 58.29-36.8C58.59-36.9 58.89-36.8 59.09-36.6C59.39-36.4 59.49-36.1 59.59-35.7C59.69-35.3 59.69-35 59.49-34.7C59.29-34.4 59.09-34.2 58.79-34.2C58.59-34.1 58.29-34.2 57.99-34.4ZM39.39-30.2C40.29-31.1 40.69-32.3 40.69-33.7C40.69-35.2 40.29-36.3 39.39-37.2C38.49-38.1 37.39-38.5 35.99-38.5C34.59-38.5 33.49-38.1 32.59-37.2C31.69-36.3 31.29-35.1 31.29-33.7C31.29-32.2 31.69-31.1 32.59-30.2C33.49-29.3 34.59-28.9 35.99-28.9C37.49-28.8 38.59-29.3 39.39-30.2ZM36.69-34.4C36.39-34.6 36.29-34.9 36.19-35.3C36.09-35.7 36.19-36 36.29-36.3C36.49-36.6 36.69-36.8 36.99-36.8C37.29-36.9 37.59-36.8 37.79-36.6C37.99-36.4 38.19-36.1 38.29-35.7C38.39-35.3 38.39-35 38.19-34.7C37.99-34.4 37.79-34.2 37.49-34.2C37.19-34.1 36.89-34.2 36.69-34.4Z"/>
  </g>
 </g>
</svg>
