<?xml version="1.0" encoding="UTF-8"?>
<!--Generator: Apple Native CoreSVG 175-->
<!DOCTYPE svg
PUBLIC "-//W3C//DTD SVG 1.1//EN"
       "http://www.w3.org/Graphics/SVG/1.1/DTD/svg11.dtd">
<svg version="1.1" xmlns="http://www.w3.org/2000/svg" xmlns:xlink="http://www.w3.org/1999/xlink" width="3300" height="2200">
 <!--glyph: "", point size: 100.0, font version: "17.1d1e1", template writer version: "65.1"-->
 <style>.hierarchical-0:tertiary {fill:#8E8E8E}
.hierarchical-1:primary {fill:#212121}

.SFSymbolsPreview212121 {fill:#212121;opacity:1.0}
.SFSymbolsPreview8E8E8E {fill:#8E8E8E;opacity:1.0}
</style>
 <g id="Notes">
  <rect height="2200" id="artboard" style="fill:white;opacity:1" width="3300" x="0" y="0"/>
  <line style="fill:none;stroke:black;opacity:1;stroke-width:0.5;" x1="263" x2="3036" y1="292" y2="292"/>
  <text style="stroke:none;fill:black;font-family:sans-serif;font-size:13;font-weight:bold;" transform="matrix(1 0 0 1 263 322)">Weight/Scale Variations</text>
  <text style="stroke:none;fill:black;font-family:sans-serif;font-size:13;text-anchor:middle;" transform="matrix(1 0 0 1 559.711 322)">Ultralight</text>
  <text style="stroke:none;fill:black;font-family:sans-serif;font-size:13;text-anchor:middle;" transform="matrix(1 0 0 1 856.422 322)">Thin</text>
  <text style="stroke:none;fill:black;font-family:sans-serif;font-size:13;text-anchor:middle;" transform="matrix(1 0 0 1 1153.13 322)">Light</text>
  <text style="stroke:none;fill:black;font-family:sans-serif;font-size:13;text-anchor:middle;" transform="matrix(1 0 0 1 1449.84 322)">Regular</text>
  <text style="stroke:none;fill:black;font-family:sans-serif;font-size:13;text-anchor:middle;" transform="matrix(1 0 0 1 1746.56 322)">Medium</text>
  <text style="stroke:none;fill:black;font-family:sans-serif;font-size:13;text-anchor:middle;" transform="matrix(1 0 0 1 2043.27 322)">Semibold</text>
  <text style="stroke:none;fill:black;font-family:sans-serif;font-size:13;text-anchor:middle;" transform="matrix(1 0 0 1 2339.98 322)">Bold</text>
  <text style="stroke:none;fill:black;font-family:sans-serif;font-size:13;text-anchor:middle;" transform="matrix(1 0 0 1 2636.69 322)">Heavy</text>
  <text style="stroke:none;fill:black;font-family:sans-serif;font-size:13;text-anchor:middle;" transform="matrix(1 0 0 1 2933.4 322)">Black</text>
  <line style="fill:none;stroke:black;opacity:1;stroke-width:0.5;" x1="263" x2="3036" y1="1903" y2="1903"/>
  <g transform="matrix(1 0 0 1 263 1933)">
   <path d="M9.24805 0.830078Q10.8691 0.830078 12.2949 0.214844Q13.7207-0.400391 14.8096-1.49414Q15.8984-2.58789 16.5186-4.01367Q17.1387-5.43945 17.1387-7.05078Q17.1387-8.66211 16.5186-10.0879Q15.8984-11.5137 14.8047-12.6074Q13.7109-13.7012 12.2852-14.3164Q10.8594-14.9316 9.23828-14.9316Q7.62695-14.9316 6.20117-14.3164Q4.77539-13.7012 3.69141-12.6074Q2.60742-11.5137 1.9873-10.0879Q1.36719-8.66211 1.36719-7.05078Q1.36719-5.43945 1.9873-4.01367Q2.60742-2.58789 3.69629-1.49414Q4.78516-0.400391 6.21094 0.214844Q7.63672 0.830078 9.24805 0.830078ZM9.24805-0.654297Q7.91992-0.654297 6.7627-1.14746Q5.60547-1.64062 4.73145-2.51953Q3.85742-3.39844 3.36426-4.56055Q2.87109-5.72266 2.87109-7.05078Q2.87109-8.37891 3.35938-9.54102Q3.84766-10.7031 4.72168-11.582Q5.5957-12.4609 6.75293-12.9541Q7.91016-13.4473 9.23828-13.4473Q10.5762-13.4473 11.7334-12.9541Q12.8906-12.4609 13.7695-11.582Q14.6484-10.7031 15.1465-9.54102Q15.6445-8.37891 15.6445-7.05078Q15.6445-5.72266 15.1514-4.56055Q14.6582-3.39844 13.7842-2.51953Q12.9102-1.64062 11.748-1.14746Q10.5859-0.654297 9.24805-0.654297ZM5.6543-7.05078Q5.6543-6.72852 5.85938-6.52832Q6.06445-6.32812 6.40625-6.32812L8.51562-6.32812L8.51562-4.20898Q8.51562-3.88672 8.71094-3.67676Q8.90625-3.4668 9.23828-3.4668Q9.56055-3.4668 9.77051-3.67676Q9.98047-3.88672 9.98047-4.20898L9.98047-6.32812L12.0898-6.32812Q12.4219-6.32812 12.627-6.52832Q12.832-6.72852 12.832-7.05078Q12.832-7.38281 12.627-7.58789Q12.4219-7.79297 12.0898-7.79297L9.98047-7.79297L9.98047-9.90234Q9.98047-10.2344 9.77051-10.4443Q9.56055-10.6543 9.23828-10.6543Q8.90625-10.6543 8.71094-10.4443Q8.51562-10.2344 8.51562-9.90234L8.51562-7.79297L6.40625-7.79297Q6.06445-7.79297 5.85938-7.58789Q5.6543-7.38281 5.6543-7.05078Z"/>
  </g>
  <g transform="matrix(1 0 0 1 281.867 1933)">
   <path d="M11.709 2.91016Q13.75 2.91016 15.5518 2.12891Q17.3535 1.34766 18.7305-0.0292969Q20.1074-1.40625 20.8887-3.20801Q21.6699-5.00977 21.6699-7.05078Q21.6699-9.0918 20.8887-10.8936Q20.1074-12.6953 18.7305-14.0723Q17.3535-15.4492 15.5469-16.2305Q13.7402-17.0117 11.6992-17.0117Q9.6582-17.0117 7.85645-16.2305Q6.05469-15.4492 4.68262-14.0723Q3.31055-12.6953 2.5293-10.8936Q1.74805-9.0918 1.74805-7.05078Q1.74805-5.00977 2.5293-3.20801Q3.31055-1.40625 4.6875-0.0292969Q6.06445 1.34766 7.86621 2.12891Q9.66797 2.91016 11.709 2.91016ZM11.709 1.25Q9.98047 1.25 8.47656 0.605469Q6.97266-0.0390625 5.83496-1.17676Q4.69727-2.31445 4.05762-3.81836Q3.41797-5.32227 3.41797-7.05078Q3.41797-8.7793 4.05762-10.2832Q4.69727-11.7871 5.83008-12.9297Q6.96289-14.0723 8.4668-14.7119Q9.9707-15.3516 11.6992-15.3516Q13.4277-15.3516 14.9316-14.7119Q16.4355-14.0723 17.5781-12.9297Q18.7207-11.7871 19.3652-10.2832Q20.0098-8.7793 20.0098-7.05078Q20.0098-5.32227 19.3701-3.81836Q18.7305-2.31445 17.5928-1.17676Q16.4551-0.0390625 14.9463 0.605469Q13.4375 1.25 11.709 1.25ZM7.17773-7.05078Q7.17773-6.69922 7.41211-6.47461Q7.64648-6.25 8.01758-6.25L10.8887-6.25L10.8887-3.36914Q10.8887-2.99805 11.1133-2.76855Q11.3379-2.53906 11.6895-2.53906Q12.0605-2.53906 12.29-2.76855Q12.5195-2.99805 12.5195-3.36914L12.5195-6.25L15.4004-6.25Q15.7715-6.25 16.001-6.47461Q16.2305-6.69922 16.2305-7.05078Q16.2305-7.42188 16.001-7.65137Q15.7715-7.88086 15.4004-7.88086L12.5195-7.88086L12.5195-10.752Q12.5195-11.1328 12.29-11.3623Q12.0605-11.5918 11.6895-11.5918Q11.3379-11.5918 11.1133-11.3574Q10.8887-11.123 10.8887-10.752L10.8887-7.88086L8.01758-7.88086Q7.63672-7.88086 7.40723-7.65137Q7.17773-7.42188 7.17773-7.05078Z"/>
  </g>
  <g transform="matrix(1 0 0 1 305.646 1933)">
   <path d="M14.9707 5.66406Q17.0605 5.66406 18.96 5.01465Q20.8594 4.36523 22.4512 3.19336Q24.043 2.02148 25.2197 0.429688Q26.3965-1.16211 27.0459-3.06641Q27.6953-4.9707 27.6953-7.05078Q27.6953-9.14062 27.0459-11.04Q26.3965-12.9395 25.2197-14.5312Q24.043-16.123 22.4512-17.2998Q20.8594-18.4766 18.9551-19.126Q17.0508-19.7754 14.9609-19.7754Q12.8711-19.7754 10.9717-19.126Q9.07227-18.4766 7.48535-17.2998Q5.89844-16.123 4.72168-14.5312Q3.54492-12.9395 2.90039-11.04Q2.25586-9.14062 2.25586-7.05078Q2.25586-4.9707 2.90527-3.06641Q3.55469-1.16211 4.72656 0.429688Q5.89844 2.02148 7.49023 3.19336Q9.08203 4.36523 10.9814 5.01465Q12.8809 5.66406 14.9707 5.66406ZM14.9707 3.84766Q13.1641 3.84766 11.5283 3.2959Q9.89258 2.74414 8.53516 1.74805Q7.17773 0.751953 6.17676-0.610352Q5.17578-1.97266 4.62891-3.6084Q4.08203-5.24414 4.08203-7.05078Q4.08203-8.86719 4.62891-10.5029Q5.17578-12.1387 6.17188-13.501Q7.16797-14.8633 8.52539-15.8594Q9.88281-16.8555 11.5186-17.4023Q13.1543-17.9492 14.9609-17.9492Q16.7773-17.9492 18.4131-17.4023Q20.0488-16.8555 21.4111-15.8594Q22.7734-14.8633 23.7695-13.501Q24.7656-12.1387 25.3174-10.5029Q25.8691-8.86719 25.8691-7.05078Q25.8789-5.24414 25.332-3.6084Q24.7852-1.97266 23.7842-0.610352Q22.7832 0.751953 21.4209 1.74805Q20.0586 2.74414 18.4229 3.2959Q16.7871 3.84766 14.9707 3.84766ZM9.19922-7.05078Q9.19922-6.66992 9.45801-6.4209Q9.7168-6.17188 10.1172-6.17188L14.0625-6.17188L14.0625-2.2168Q14.0625-1.81641 14.3115-1.55762Q14.5605-1.29883 14.9512-1.29883Q15.3516-1.29883 15.6104-1.55273Q15.8691-1.80664 15.8691-2.2168L15.8691-6.17188L19.8242-6.17188Q20.2246-6.17188 20.4785-6.4209Q20.7324-6.66992 20.7324-7.05078Q20.7324-7.46094 20.4785-7.71484Q20.2246-7.96875 19.8242-7.96875L15.8691-7.96875L15.8691-11.9141Q15.8691-12.3242 15.6104-12.583Q15.3516-12.8418 14.9512-12.8418Q14.5605-12.8418 14.3115-12.583Q14.0625-12.3242 14.0625-11.9141L14.0625-7.96875L10.1172-7.96875Q9.70703-7.96875 9.45312-7.71484Q9.19922-7.46094 9.19922-7.05078Z"/>
  </g>
  <text style="stroke:none;fill:black;font-family:sans-serif;font-size:13;font-weight:bold;" transform="matrix(1 0 0 1 263 1953)">Design Variations</text>
  <text style="stroke:none;fill:black;font-family:sans-serif;font-size:13;" transform="matrix(1 0 0 1 263 1971)">Symbols are supported in up to nine weights and three scales.</text>
  <text style="stroke:none;fill:black;font-family:sans-serif;font-size:13;" transform="matrix(1 0 0 1 263 1989)">For optimal layout with text and other symbols, vertically align</text>
  <text style="stroke:none;fill:black;font-family:sans-serif;font-size:13;" transform="matrix(1 0 0 1 263 2007)">symbols with the adjacent text.</text>
  <line style="fill:none;stroke:#00AEEF;stroke-width:0.5;opacity:1.0;" x1="776" x2="776" y1="1919" y2="1933"/>
  <g transform="matrix(1 0 0 1 776 1933)">
   <path d="M3.31055 0.15625Q3.70117 0.15625 3.91602-0.00976562Q4.13086-0.175781 4.26758-0.585938L5.52734-4.0332L11.2891-4.0332L12.5488-0.585938Q12.6855-0.175781 12.9004-0.00976562Q13.1152 0.15625 13.4961 0.15625Q13.8867 0.15625 14.1162-0.0585938Q14.3457-0.273438 14.3457-0.644531Q14.3457-0.869141 14.2383-1.17188L9.6582-13.3691Q9.48242-13.8184 9.17969-14.043Q8.87695-14.2676 8.4082-14.2676Q7.5-14.2676 7.17773-13.3789L2.59766-1.16211Q2.49023-0.859375 2.49023-0.634766Q2.49023-0.263672 2.70996-0.0537109Q2.92969 0.15625 3.31055 0.15625ZM6.00586-5.51758L8.37891-12.0898L8.42773-12.0898L10.8008-5.51758Z"/>
  </g>
  <line style="fill:none;stroke:#00AEEF;stroke-width:0.5;opacity:1.0;" x1="793.197" x2="793.197" y1="1919" y2="1933"/>
  <text style="stroke:none;fill:black;font-family:sans-serif;font-size:13;font-weight:bold;" transform="matrix(1 0 0 1 776 1953)">Margins</text>
  <text style="stroke:none;fill:black;font-family:sans-serif;font-size:13;" transform="matrix(1 0 0 1 776 1971)">Leading and trailing margins on the left and right side of each symbol</text>
  <text style="stroke:none;fill:black;font-family:sans-serif;font-size:13;" transform="matrix(1 0 0 1 776 1989)">can be adjusted by modifying the x-location of the margin guidelines.</text>
  <text style="stroke:none;fill:black;font-family:sans-serif;font-size:13;" transform="matrix(1 0 0 1 776 2007)">Modifications are automatically applied proportionally to all</text>
  <text style="stroke:none;fill:black;font-family:sans-serif;font-size:13;" transform="matrix(1 0 0 1 776 2025)">scales and weights.</text>
  <g transform="matrix(1 0 0 1 1289 1933)">
   <path d="M2.8418 1.86523L4.54102 3.57422Q5.18555 4.22852 5.90332 4.17969Q6.62109 4.13086 7.31445 3.35938L18.0078-8.42773L17.041-9.4043L6.42578 2.27539Q6.16211 2.57812 5.89355 2.61719Q5.625 2.65625 5.27344 2.30469L4.10156 1.14258Q3.75 0.791016 3.79395 0.522461Q3.83789 0.253906 4.14062-0.0195312L15.6152-10.8203L14.6387-11.7871L3.04688-0.898438Q2.30469-0.214844 2.25098 0.498047Q2.19727 1.21094 2.8418 1.86523ZM9.25781-16.3281Q8.94531-16.0254 8.90625-15.6348Q8.86719-15.2441 9.04297-14.9512Q9.21875-14.6777 9.55566-14.541Q9.89258-14.4043 10.3809-14.5215Q11.4746-14.7754 12.5977-14.7314Q13.7207-14.6875 14.7949-13.9844L14.209-12.5293Q13.9551-11.9043 14.0674-11.4404Q14.1797-10.9766 14.5801-10.5664L16.875-8.25195Q17.2363-7.88086 17.5781-7.82227Q17.9199-7.76367 18.3398-7.8418L19.4043-8.03711L20.0684-7.36328L20.0293-6.80664Q20-6.43555 20.1221-6.12305Q20.2441-5.81055 20.6055-5.44922L21.3672-4.70703Q21.7285-4.3457 22.1533-4.33105Q22.5781-4.31641 22.9297-4.66797L25.8398-7.58789Q26.1914-7.93945 26.1816-8.35449Q26.1719-8.76953 25.8105-9.13086L25.0391-9.89258Q24.6875-10.2539 24.3799-10.3857Q24.0723-10.5176 23.7109-10.4883L23.1348-10.4395L22.4902-11.0742L22.7344-12.1973Q22.832-12.6172 22.6953-12.9834Q22.5586-13.3496 22.1191-13.7891L19.9219-15.9766Q18.6719-17.2168 17.2607-17.8369Q15.8496-18.457 14.4189-18.4814Q12.9883-18.5059 11.665-17.959Q10.3418-17.4121 9.25781-16.3281ZM10.752-15.957Q11.6602-16.6211 12.7002-16.9043Q13.7402-17.1875 14.8047-17.085Q15.8691-16.9824 16.8701-16.5137Q17.8711-16.0449 18.7012-15.2051L21.1328-12.793Q21.3086-12.6172 21.3525-12.4512Q21.3965-12.2852 21.3379-12.0312L21.0156-10.5469L22.5195-9.0625L23.5059-9.12109Q23.6914-9.13086 23.7891-9.09668Q23.8867-9.0625 24.0332-8.91602L24.6094-8.33984L22.168-5.89844L21.5918-6.47461Q21.4453-6.62109 21.4062-6.71875Q21.3672-6.81641 21.377-7.01172L21.4453-7.98828L19.9512-9.47266L18.4277-9.21875Q18.1836-9.16992 18.042-9.2041Q17.9004-9.23828 17.7148-9.41406L15.7129-11.416Q15.5176-11.5918 15.4932-11.7529Q15.4688-11.9141 15.5859-12.1875L16.4648-14.2773Q15.293-15.3711 13.8281-15.791Q12.3633-16.2109 10.8398-15.7617Q10.7227-15.7324 10.6885-15.8057Q10.6543-15.8789 10.752-15.957Z"/>
  </g>
  <text style="stroke:none;fill:black;font-family:sans-serif;font-size:13;font-weight:bold;" transform="matrix(1 0 0 1 1289 1953)">Exporting</text>
  <text style="stroke:none;fill:black;font-family:sans-serif;font-size:13;" transform="matrix(1 0 0 1 1289 1971)">Symbols should be outlined when exporting to ensure the</text>
  <text style="stroke:none;fill:black;font-family:sans-serif;font-size:13;" transform="matrix(1 0 0 1 1289 1989)">design is preserved when submitting to Xcode.</text>
  <text id="template-version" style="stroke:none;fill:black;font-family:sans-serif;font-size:13;text-anchor:end;" transform="matrix(1 0 0 1 3036 1933)">Template v.3.0</text>
  <text style="stroke:none;fill:black;font-family:sans-serif;font-size:13;text-anchor:end;" transform="matrix(1 0 0 1 3036 1951)">Requires Xcode 13 or greater</text>
  <text id="descriptive-name" style="stroke:none;fill:black;font-family:sans-serif;font-size:13;text-anchor:end;" transform="matrix(1 0 0 1 3036 1969)">Generated from anchor.app.fill</text>
  <text style="stroke:none;fill:black;font-family:sans-serif;font-size:13;text-anchor:end;" transform="matrix(1 0 0 1 3036 1987)">Typeset at 100 points</text>
  <text style="stroke:none;fill:black;font-family:sans-serif;font-size:13;" transform="matrix(1 0 0 1 263 726)">Small</text>
  <text style="stroke:none;fill:black;font-family:sans-serif;font-size:13;" transform="matrix(1 0 0 1 263 1156)">Medium</text>
  <text style="stroke:none;fill:black;font-family:sans-serif;font-size:13;" transform="matrix(1 0 0 1 263 1586)">Large</text>
 </g>
 <g id="Guides">
  <g id="H-reference" style="fill:#27AAE1;stroke:none;" transform="matrix(1 0 0 1 339 696)">
   <path d="M0.993347 0L3.6377 0L29.3282-67.1326L30.0301-67.1326L30.0301-70.459L28.1227-70.459ZM11.6882-24.4797L46.9818-24.4797L46.2311-26.7288L12.4382-26.7288ZM55.1193 0L57.7637 0L30.6381-70.459L29.4327-70.459L29.4327-67.1326Z"/>
  </g>
  <line id="Baseline-S" style="fill:none;stroke:#27AAE1;opacity:1;stroke-width:0.5;" x1="263" x2="3036" y1="696" y2="696"/>
  <line id="Capline-S" style="fill:none;stroke:#27AAE1;opacity:1;stroke-width:0.5;" x1="263" x2="3036" y1="625.541" y2="625.541"/>
  <g id="H-reference" style="fill:#27AAE1;stroke:none;" transform="matrix(1 0 0 1 339 1126)">
   <path d="M0.993347 0L3.6377 0L29.3282-67.1326L30.0301-67.1326L30.0301-70.459L28.1227-70.459ZM11.6882-24.4797L46.9818-24.4797L46.2311-26.7288L12.4382-26.7288ZM55.1193 0L57.7637 0L30.6381-70.459L29.4327-70.459L29.4327-67.1326Z"/>
  </g>
  <line id="Baseline-M" style="fill:none;stroke:#27AAE1;opacity:1;stroke-width:0.5;" x1="263" x2="3036" y1="1126" y2="1126"/>
  <line id="Capline-M" style="fill:none;stroke:#27AAE1;opacity:1;stroke-width:0.5;" x1="263" x2="3036" y1="1055.54" y2="1055.54"/>
  <g id="H-reference" style="fill:#27AAE1;stroke:none;" transform="matrix(1 0 0 1 339 1556)">
   <path d="M0.993347 0L3.6377 0L29.3282-67.1326L30.0301-67.1326L30.0301-70.459L28.1227-70.459ZM11.6882-24.4797L46.9818-24.4797L46.2311-26.7288L12.4382-26.7288ZM55.1193 0L57.7637 0L30.6381-70.459L29.4327-70.459L29.4327-67.1326Z"/>
  </g>
  <line id="Baseline-L" style="fill:none;stroke:#27AAE1;opacity:1;stroke-width:0.5;" x1="263" x2="3036" y1="1556" y2="1556"/>
  <line id="Capline-L" style="fill:none;stroke:#27AAE1;opacity:1;stroke-width:0.5;" x1="263" x2="3036" y1="1485.54" y2="1485.54"/>
  <line id="left-margin-Ultralight-S" style="fill:none;stroke:#00AEEF;stroke-width:0.5;opacity:1.0;" x1="516.811" x2="516.811" y1="600.73" y2="720.135"/>
  <line id="right-margin-Ultralight-S" style="fill:none;stroke:#00AEEF;stroke-width:0.5;opacity:1.0;" x1="602.611" x2="602.611" y1="600.73" y2="720.135"/>
  <line id="left-margin-Regular-S" style="fill:none;stroke:#00AEEF;stroke-width:0.5;opacity:1.0;" x1="1404.89" x2="1404.89" y1="600.73" y2="720.135"/>
  <line id="right-margin-Regular-S" style="fill:none;stroke:#00AEEF;stroke-width:0.5;opacity:1.0;" x1="1494.79" x2="1494.79" y1="600.73" y2="720.135"/>
  <line id="left-margin-Black-S" style="fill:none;stroke:#00AEEF;stroke-width:0.5;opacity:1.0;" x1="2886" x2="2886" y1="600.73" y2="720.135"/>
  <line id="right-margin-Black-S" style="fill:none;stroke:#00AEEF;stroke-width:0.5;opacity:1.0;" x1="2980.8" x2="2980.8" y1="600.73" y2="720.135"/>
 </g>
 <g id="Symbols">
  <g id="Black-S" transform="matrix(1 0 0 1 2886 696)">
   <path class="hierarchical-0:tertiary SFSymbolsPreview8E8E8E" d="M79.49-67.3C77.39-69.3 74.99-70.8 72.19-71.6C69.39-72.4 65.69-72.9 61.09-72.9L33.69-72.9C29.09-72.9 25.39-72.5 22.59-71.6C19.79-70.8 17.29-69.3 15.29-67.3C13.29-65.3 11.89-62.9 10.99-60.1C10.19-57.3 9.79-53.6 9.79-49L9.79-21.6C9.79-17 10.19-13.3 10.99-10.5C11.79-7.7 13.29-5.3 15.29-3.3C17.39-1.3 19.79 0.2 22.59 1C25.39 1.8 29.09 2.3 33.69 2.3L61.09 2.3C65.69 2.3 69.39 1.9 72.19 1C74.99 0.2 77.49-1.3 79.49-3.3C81.49-5.3 82.89-7.7 83.79-10.5C84.59-13.3 84.99-17 84.99-21.6L84.99-49C84.99-53.6 84.59-57.3 83.79-60.2C82.99-62.9 81.59-65.3 79.49-67.3Z"/>
   <path class="hierarchical-1:primary SFSymbolsPreview212121" d="M59.89-13.9C58.89-13.9 58.39-14.4 58.39-15.5L58.39-17.7C54.69-17.9 51.79-18.6 49.99-20C48.19-21.4 46.89-22.7 46.19-24.1C45.99-24.5 45.89-24.9 45.79-25.2C45.69-25.6 45.69-25.9 45.69-26.2C45.69-27.5 46.09-28.6 46.89-29.4C47.69-30.2 48.89-30.6 50.49-30.6C51.59-30.6 52.59-30.3 53.29-29.8C53.99-29.3 54.69-28.6 55.19-27.7C55.49-27.2 55.79-26.9 56.29-26.5C56.79-26.2 57.49-25.9 58.29-25.8L58.29-30.7L55.79-31.2C52.29-31.9 49.69-33.1 47.89-34.8C46.09-36.5 45.19-38.8 45.19-41.7C45.19-45 46.39-47.6 48.89-49.5C51.39-51.5 54.49-52.6 58.29-52.7L58.29-55.1C58.29-56.2 58.79-56.7 59.79-56.7C60.29-56.7 60.59-56.6 60.89-56.3C61.19-56 61.29-55.6 61.29-55.1L61.29-52.7C64.69-52.5 67.29-51.7 69.29-50.4C71.29-49.1 72.49-47.6 73.09-45.9C73.19-45.6 73.29-45.2 73.39-44.9C73.49-44.6 73.49-44.2 73.49-43.9C73.49-42.8 73.09-41.8 72.29-41.1C71.49-40.4 70.39-40 68.89-40C66.89-40 65.29-40.9 63.99-42.8C63.69-43.3 63.29-43.6 62.89-43.9C62.49-44.2 61.99-44.4 61.29-44.5L61.29-39.7L63.79-39.2C67.39-38.5 70.09-37.3 71.89-35.7C73.69-34.1 74.59-31.9 74.59-29C74.59-25.8 73.39-23.2 70.99-21.1C68.59-19.1 65.39-17.9 61.29-17.6L61.29-15.4C61.29-14.9 61.19-14.5 60.89-14.2C60.69-14 60.39-13.9 59.89-13.9ZM33.04-35.7L29.24-41.9L25.44-35.7C24.64-34.4 23.64-33.7 22.54-33.5C21.34-33.3 20.24-33.5 19.24-34.2C18.24-34.9 17.54-35.7 17.14-36.9C16.74-38.1 17.04-39.3 17.94-40.7L24.54-51.3C25.24-52.4 26.14-53.2 27.34-53.6C28.54-54 29.74-54 30.94-53.6C32.14-53.2 33.14-52.5 33.84-51.3L40.54-40.7C41.44-39.3 41.64-38 41.34-36.9C40.94-35.7 40.34-34.9 39.24-34.2C38.14-33.5 37.14-33.4 35.94-33.6C34.84-33.6 33.84-34.4 33.04-35.7ZM61.39-30.1L61.39-25.8C62.29-25.9 63.09-26.2 63.59-26.5C64.09-26.8 64.39-27.3 64.39-27.9C64.39-28.5 64.19-28.9 63.69-29.2C63.19-29.5 62.59-29.8 61.59-30L61.39-30.1ZM58.39-40.5L58.39-44.8C57.59-44.8 56.89-44.6 56.29-44.2C55.79-43.8 55.49-43.3 55.49-42.7C55.49-42.1 55.69-41.7 56.19-41.3C56.59-40.9 57.29-40.7 58.09-40.5L58.39-40.5Z"/>
  </g>
  <g id="Regular-S" transform="matrix(1 0 0 1 1404.89 696)">
   <path class="hierarchical-0:tertiary SFSymbolsPreview8E8E8E" d="M75.5-65.8C73.4-67.9 71-69.2 68.2-69.7C65.4-70.2 62.4-70.5 59.3-70.5L30.6-70.5C27.5-70.5 24.5-70.2 21.7-69.7C18.9-69.2 16.4-67.9 14.4-65.8C12.3-63.7 11.1-61.3 10.6-58.5C10.1-55.7 9.8-52.7 9.8-49.6L9.8-20.9C9.8-17.8 10.1-14.8 10.6-12C11.1-9.2 12.4-6.8 14.4-4.7C16.5-2.6 18.9-1.4 21.7-0.8C24.5-0.3 27.5 0 30.6 0L59.3 0C62.4 0 65.4-0.3 68.2-0.8C71-1.3 73.5-2.6 75.5-4.7C77.6-6.8 78.8-9.2 79.3-12C79.8-14.8 80.1-17.8 80.1-20.9L80.1-49.6C80.1-52.8 79.8-55.7 79.3-58.5C78.9-61.3 77.6-63.8 75.5-65.8Z"/>
   <path class="hierarchical-1:primary SFSymbolsPreview212121" d="M58.01-12.4C56.61-12.4 55.91-13.1 55.91-14.5L55.91-17.2C53.31-17.5 51.01-18.3 49.01-19.6C47.01-20.9 45.71-22.8 45.11-25.1C45.01-25.3 45.01-25.5 45.01-25.7C45.01-25.9 45.01-26.1 45.01-26.4C45.01-27.1 45.21-27.8 45.71-28.3C46.21-28.8 46.81-29 47.61-29C48.31-29 48.81-28.8 49.31-28.5C49.81-28.2 50.11-27.6 50.41-26.9C50.81-25.7 51.41-24.7 52.31-23.9C53.21-23.1 54.51-22.5 56.11-22.2L56.11-33.3L56.01-33.4C52.71-34.2 50.21-35.4 48.41-37C46.71-38.6 45.81-40.7 45.81-43.3C45.81-46.1 46.81-48.3 48.71-50.1C50.61-51.9 53.11-53 56.11-53.3L56.11-56C56.11-57.4 56.81-58.1 58.21-58.1C58.81-58.1 59.31-57.9 59.71-57.5C60.11-57.1 60.31-56.6 60.31-56L60.31-53.3C62.81-53 65.01-52.1 66.81-50.7C68.61-49.3 69.91-47.5 70.41-45.4C70.51-45.2 70.51-45 70.51-44.7C70.51-44.5 70.51-44.3 70.51-44C70.51-43.3 70.31-42.6 69.81-42.1C69.31-41.6 68.71-41.4 67.91-41.4C66.61-41.4 65.71-42.1 65.21-43.5C64.81-44.8 64.11-45.8 63.31-46.5C62.51-47.2 61.41-47.8 60.21-48L60.21-37.5L60.51-37.5C64.01-36.9 66.61-35.8 68.41-34.1C70.21-32.4 71.11-30.2 71.11-27.4C71.11-24.3 70.01-21.8 67.91-20.1C65.81-18.4 63.21-17.3 60.21-17L60.21-14.3C60.21-13.7 60.01-13.2 59.61-12.8C59.01-12.5 58.51-12.4 58.01-12.4ZM33.79-38.7L28.29-47.8L22.79-38.7C22.29-37.9 21.59-37.4 20.79-37.2C19.99-37.1 19.29-37.2 18.59-37.6C17.89-38 17.49-38.6 17.19-39.4C16.99-40.2 17.19-41.1 17.79-42L24.79-53.3C25.29-54.1 25.99-54.7 26.89-54.9C27.79-55.2 28.69-55.2 29.59-54.9C30.49-54.6 31.19-54.1 31.69-53.2L38.79-41.9C39.39-40.9 39.59-40 39.29-39.3C39.09-38.5 38.59-37.9 37.89-37.5C37.19-37.1 36.49-37 35.69-37.1C34.99-37.3 34.29-37.8 33.79-38.7ZM60.11-32.2L60.11-22.1C62.01-22.3 63.41-22.9 64.21-23.8C65.11-24.7 65.51-25.8 65.51-27.1C65.51-28.2 65.21-29.2 64.51-30C63.81-30.8 62.61-31.4 60.91-31.9L60.11-32.2ZM55.91-38.8L55.91-48.2C54.41-47.9 53.21-47.3 52.41-46.5C51.61-45.6 51.21-44.7 51.21-43.6C51.21-42.5 51.61-41.6 52.31-40.8C53.01-40 54.21-39.4 55.81-38.9L55.91-38.8Z"/>
  </g>
  <g id="Ultralight-S" transform="matrix(1 0 0 1 516.811 696)">
   <path class="hierarchical-0:tertiary SFSymbolsPreview8E8E8E" d="M72.131-64.3C70.731-65.8 68.931-66.8 66.731-67.4C64.531-68 61.531-68.3 57.731-68.3L27.731-68.3C24.231-68.3 21.331-68 19.131-67.4C16.931-66.8 15.131-65.8 13.731-64.3C12.331-62.9 11.331-61.1 10.631-59C10.031-56.9 9.731-54 9.731-50.4L9.731-20.5C9.731-16.6 10.031-13.6 10.631-11.4C11.231-9.2 12.231-7.4 13.631-6C15.131-4.6 17.031-3.6 19.131-3C21.231-2.4 24.331-2.1 28.131-2.1L57.531-2.1C61.331-2.1 64.331-2.4 66.531-3C68.731-3.6 70.531-4.6 71.931-6.1C73.431-7.6 74.431-9.4 75.031-11.5C75.631-13.6 75.931-16.7 75.931-20.5L75.931-49.9C75.931-53.7 75.631-56.8 75.031-58.9C74.631-61.1 73.531-62.9 72.131-64.3Z"/>
   <path class="hierarchical-1:primary SFSymbolsPreview212121" d="M54.881-14.3C54.181-14.3 53.881-14.6 53.881-15.3L53.881-18.6C51.081-18.7 48.781-19.5 46.881-21C44.981-22.5 43.881-24.3 43.481-26.6C43.481-26.7 43.381-26.9 43.381-27C43.381-27.1 43.381-27.3 43.381-27.5C43.381-27.9 43.481-28.1 43.681-28.4C43.881-28.6 44.081-28.7 44.381-28.7C44.781-28.7 44.981-28.6 45.181-28.4C45.381-28.2 45.481-27.9 45.481-27.6C45.681-25.7 46.581-24.1 48.181-22.9C49.781-21.6 51.681-20.9 53.981-20.8L53.981-34.8L53.381-34.9C50.281-35.6 48.081-36.6 46.481-38C44.981-39.4 44.181-41.1 44.181-43.1C44.181-45.4 45.181-47.4 47.081-49C48.981-50.6 51.281-51.4 53.981-51.6L53.981-54.3C53.981-55 54.281-55.3 54.981-55.3C55.281-55.3 55.481-55.2 55.781-55C55.981-54.8 56.081-54.6 56.081-54.3L56.081-51.6C58.681-51.5 60.881-50.7 62.581-49.4C64.381-48 65.481-46.4 65.881-44.5C65.881-44.4 65.881-44.2 65.881-44.1C65.881-43.9 65.881-43.8 65.881-43.7C65.881-43.3 65.781-43.1 65.581-42.9C65.381-42.7 65.081-42.6 64.781-42.6C64.181-42.6 63.881-43 63.781-43.7C63.481-45.3 62.681-46.7 61.281-47.8C59.881-48.9 58.081-49.5 55.981-49.7L55.981-36.6L57.181-36.4C60.381-35.7 62.681-34.6 64.281-33.2C65.781-31.8 66.581-30 66.581-27.8C66.581-25.4 65.581-23.3 63.681-21.7C61.681-20 59.181-19.1 56.081-18.9L56.081-15.7C56.081-15.4 55.981-15.2 55.781-15C55.381-14.3 55.181-14.3 54.881-14.3ZM34.633-41.5L27.933-52.6L21.233-41.5C21.033-41.1 20.733-40.9 20.433-40.9C20.133-40.8 19.833-40.9 19.633-41.1C19.433-41.3 19.233-41.5 19.133-41.8C19.033-42.1 19.133-42.4 19.333-42.8L26.633-54.4C26.833-54.7 27.133-55 27.433-55.1C27.833-55.2 28.133-55.2 28.533-55.1C28.833-55 29.133-54.8 29.433-54.4L36.733-42.8C36.933-42.5 37.033-42.1 36.933-41.8C36.833-41.5 36.633-41.3 36.433-41.1C36.133-40.9 35.933-40.9 35.533-41C35.033-41 34.833-41.2 34.633-41.5ZM55.981-34L55.981-20.5C58.481-20.6 60.481-21.3 62.081-22.6C63.681-23.9 64.381-25.4 64.381-27.3C64.381-29 63.781-30.3 62.581-31.3C61.381-32.3 59.481-33.1 56.781-33.8L55.981-34ZM53.881-36.7L53.881-49.3C51.781-49.1 49.981-48.5 48.481-47.3C46.981-46.1 46.281-44.7 46.281-43C46.281-41.4 46.881-40.1 48.181-39.1C49.481-38.1 51.281-37.4 53.781-36.8L53.881-36.7Z"/>
  </g>
 </g>
</svg>
