<?xml version="1.0" encoding="UTF-8"?>
<!--Generator: Apple Native CoreSVG 175-->
<!DOCTYPE svg
PUBLIC "-//W3C//DTD SVG 1.1//EN"
       "http://www.w3.org/Graphics/SVG/1.1/DTD/svg11.dtd">
<svg version="1.1" xmlns="http://www.w3.org/2000/svg" xmlns:xlink="http://www.w3.org/1999/xlink" width="3300" height="2200">
 <!--glyph: "", point size: 100.0, font version: "17.1d1e1", template writer version: "65.1"-->
 <style>.hierarchical-0:tertiary {fill:#8E8E8E}
.hierarchical-1:primary {fill:#212121}

.SFSymbolsPreview212121 {fill:#212121;opacity:1.0}
.SFSymbolsPreview8E8E8E {fill:#8E8E8E;opacity:1.0}
</style>
 <g id="Notes">
  <rect height="2200" id="artboard" style="fill:white;opacity:1" width="3300" x="0" y="0"/>
  <line style="fill:none;stroke:black;opacity:1;stroke-width:0.5;" x1="263" x2="3036" y1="292" y2="292"/>
  <text style="stroke:none;fill:black;font-family:sans-serif;font-size:13;font-weight:bold;" transform="matrix(1 0 0 1 263 322)">Weight/Scale Variations</text>
  <text style="stroke:none;fill:black;font-family:sans-serif;font-size:13;text-anchor:middle;" transform="matrix(1 0 0 1 559.711 322)">Ultralight</text>
  <text style="stroke:none;fill:black;font-family:sans-serif;font-size:13;text-anchor:middle;" transform="matrix(1 0 0 1 856.422 322)">Thin</text>
  <text style="stroke:none;fill:black;font-family:sans-serif;font-size:13;text-anchor:middle;" transform="matrix(1 0 0 1 1153.13 322)">Light</text>
  <text style="stroke:none;fill:black;font-family:sans-serif;font-size:13;text-anchor:middle;" transform="matrix(1 0 0 1 1449.84 322)">Regular</text>
  <text style="stroke:none;fill:black;font-family:sans-serif;font-size:13;text-anchor:middle;" transform="matrix(1 0 0 1 1746.56 322)">Medium</text>
  <text style="stroke:none;fill:black;font-family:sans-serif;font-size:13;text-anchor:middle;" transform="matrix(1 0 0 1 2043.27 322)">Semibold</text>
  <text style="stroke:none;fill:black;font-family:sans-serif;font-size:13;text-anchor:middle;" transform="matrix(1 0 0 1 2339.98 322)">Bold</text>
  <text style="stroke:none;fill:black;font-family:sans-serif;font-size:13;text-anchor:middle;" transform="matrix(1 0 0 1 2636.69 322)">Heavy</text>
  <text style="stroke:none;fill:black;font-family:sans-serif;font-size:13;text-anchor:middle;" transform="matrix(1 0 0 1 2933.4 322)">Black</text>
  <line style="fill:none;stroke:black;opacity:1;stroke-width:0.5;" x1="263" x2="3036" y1="1903" y2="1903"/>
  <g transform="matrix(1 0 0 1 263 1933)">
   <path d="M9.24805 0.830078Q10.8691 0.830078 12.2949 0.214844Q13.7207-0.400391 14.8096-1.49414Q15.8984-2.58789 16.5186-4.01367Q17.1387-5.43945 17.1387-7.05078Q17.1387-8.66211 16.5186-10.0879Q15.8984-11.5137 14.8047-12.6074Q13.7109-13.7012 12.2852-14.3164Q10.8594-14.9316 9.23828-14.9316Q7.62695-14.9316 6.20117-14.3164Q4.77539-13.7012 3.69141-12.6074Q2.60742-11.5137 1.9873-10.0879Q1.36719-8.66211 1.36719-7.05078Q1.36719-5.43945 1.9873-4.01367Q2.60742-2.58789 3.69629-1.49414Q4.78516-0.400391 6.21094 0.214844Q7.63672 0.830078 9.24805 0.830078ZM9.24805-0.654297Q7.91992-0.654297 6.7627-1.14746Q5.60547-1.64062 4.73145-2.51953Q3.85742-3.39844 3.36426-4.56055Q2.87109-5.72266 2.87109-7.05078Q2.87109-8.37891 3.35938-9.54102Q3.84766-10.7031 4.72168-11.582Q5.5957-12.4609 6.75293-12.9541Q7.91016-13.4473 9.23828-13.4473Q10.5762-13.4473 11.7334-12.9541Q12.8906-12.4609 13.7695-11.582Q14.6484-10.7031 15.1465-9.54102Q15.6445-8.37891 15.6445-7.05078Q15.6445-5.72266 15.1514-4.56055Q14.6582-3.39844 13.7842-2.51953Q12.9102-1.64062 11.748-1.14746Q10.5859-0.654297 9.24805-0.654297ZM5.6543-7.05078Q5.6543-6.72852 5.85938-6.52832Q6.06445-6.32812 6.40625-6.32812L8.51562-6.32812L8.51562-4.20898Q8.51562-3.88672 8.71094-3.67676Q8.90625-3.4668 9.23828-3.4668Q9.56055-3.4668 9.77051-3.67676Q9.98047-3.88672 9.98047-4.20898L9.98047-6.32812L12.0898-6.32812Q12.4219-6.32812 12.627-6.52832Q12.832-6.72852 12.832-7.05078Q12.832-7.38281 12.627-7.58789Q12.4219-7.79297 12.0898-7.79297L9.98047-7.79297L9.98047-9.90234Q9.98047-10.2344 9.77051-10.4443Q9.56055-10.6543 9.23828-10.6543Q8.90625-10.6543 8.71094-10.4443Q8.51562-10.2344 8.51562-9.90234L8.51562-7.79297L6.40625-7.79297Q6.06445-7.79297 5.85938-7.58789Q5.6543-7.38281 5.6543-7.05078Z"/>
  </g>
  <g transform="matrix(1 0 0 1 281.867 1933)">
   <path d="M11.709 2.91016Q13.75 2.91016 15.5518 2.12891Q17.3535 1.34766 18.7305-0.0292969Q20.1074-1.40625 20.8887-3.20801Q21.6699-5.00977 21.6699-7.05078Q21.6699-9.0918 20.8887-10.8936Q20.1074-12.6953 18.7305-14.0723Q17.3535-15.4492 15.5469-16.2305Q13.7402-17.0117 11.6992-17.0117Q9.6582-17.0117 7.85645-16.2305Q6.05469-15.4492 4.68262-14.0723Q3.31055-12.6953 2.5293-10.8936Q1.74805-9.0918 1.74805-7.05078Q1.74805-5.00977 2.5293-3.20801Q3.31055-1.40625 4.6875-0.0292969Q6.06445 1.34766 7.86621 2.12891Q9.66797 2.91016 11.709 2.91016ZM11.709 1.25Q9.98047 1.25 8.47656 0.605469Q6.97266-0.0390625 5.83496-1.17676Q4.69727-2.31445 4.05762-3.81836Q3.41797-5.32227 3.41797-7.05078Q3.41797-8.7793 4.05762-10.2832Q4.69727-11.7871 5.83008-12.9297Q6.96289-14.0723 8.4668-14.7119Q9.9707-15.3516 11.6992-15.3516Q13.4277-15.3516 14.9316-14.7119Q16.4355-14.0723 17.5781-12.9297Q18.7207-11.7871 19.3652-10.2832Q20.0098-8.7793 20.0098-7.05078Q20.0098-5.32227 19.3701-3.81836Q18.7305-2.31445 17.5928-1.17676Q16.4551-0.0390625 14.9463 0.605469Q13.4375 1.25 11.709 1.25ZM7.17773-7.05078Q7.17773-6.69922 7.41211-6.47461Q7.64648-6.25 8.01758-6.25L10.8887-6.25L10.8887-3.36914Q10.8887-2.99805 11.1133-2.76855Q11.3379-2.53906 11.6895-2.53906Q12.0605-2.53906 12.29-2.76855Q12.5195-2.99805 12.5195-3.36914L12.5195-6.25L15.4004-6.25Q15.7715-6.25 16.001-6.47461Q16.2305-6.69922 16.2305-7.05078Q16.2305-7.42188 16.001-7.65137Q15.7715-7.88086 15.4004-7.88086L12.5195-7.88086L12.5195-10.752Q12.5195-11.1328 12.29-11.3623Q12.0605-11.5918 11.6895-11.5918Q11.3379-11.5918 11.1133-11.3574Q10.8887-11.123 10.8887-10.752L10.8887-7.88086L8.01758-7.88086Q7.63672-7.88086 7.40723-7.65137Q7.17773-7.42188 7.17773-7.05078Z"/>
  </g>
  <g transform="matrix(1 0 0 1 305.646 1933)">
   <path d="M14.9707 5.66406Q17.0605 5.66406 18.96 5.01465Q20.8594 4.36523 22.4512 3.19336Q24.043 2.02148 25.2197 0.429688Q26.3965-1.16211 27.0459-3.06641Q27.6953-4.9707 27.6953-7.05078Q27.6953-9.14062 27.0459-11.04Q26.3965-12.9395 25.2197-14.5312Q24.043-16.123 22.4512-17.2998Q20.8594-18.4766 18.9551-19.126Q17.0508-19.7754 14.9609-19.7754Q12.8711-19.7754 10.9717-19.126Q9.07227-18.4766 7.48535-17.2998Q5.89844-16.123 4.72168-14.5312Q3.54492-12.9395 2.90039-11.04Q2.25586-9.14062 2.25586-7.05078Q2.25586-4.9707 2.90527-3.06641Q3.55469-1.16211 4.72656 0.429688Q5.89844 2.02148 7.49023 3.19336Q9.08203 4.36523 10.9814 5.01465Q12.8809 5.66406 14.9707 5.66406ZM14.9707 3.84766Q13.1641 3.84766 11.5283 3.2959Q9.89258 2.74414 8.53516 1.74805Q7.17773 0.751953 6.17676-0.610352Q5.17578-1.97266 4.62891-3.6084Q4.08203-5.24414 4.08203-7.05078Q4.08203-8.86719 4.62891-10.5029Q5.17578-12.1387 6.17188-13.501Q7.16797-14.8633 8.52539-15.8594Q9.88281-16.8555 11.5186-17.4023Q13.1543-17.9492 14.9609-17.9492Q16.7773-17.9492 18.4131-17.4023Q20.0488-16.8555 21.4111-15.8594Q22.7734-14.8633 23.7695-13.501Q24.7656-12.1387 25.3174-10.5029Q25.8691-8.86719 25.8691-7.05078Q25.8789-5.24414 25.332-3.6084Q24.7852-1.97266 23.7842-0.610352Q22.7832 0.751953 21.4209 1.74805Q20.0586 2.74414 18.4229 3.2959Q16.7871 3.84766 14.9707 3.84766ZM9.19922-7.05078Q9.19922-6.66992 9.45801-6.4209Q9.7168-6.17188 10.1172-6.17188L14.0625-6.17188L14.0625-2.2168Q14.0625-1.81641 14.3115-1.55762Q14.5605-1.29883 14.9512-1.29883Q15.3516-1.29883 15.6104-1.55273Q15.8691-1.80664 15.8691-2.2168L15.8691-6.17188L19.8242-6.17188Q20.2246-6.17188 20.4785-6.4209Q20.7324-6.66992 20.7324-7.05078Q20.7324-7.46094 20.4785-7.71484Q20.2246-7.96875 19.8242-7.96875L15.8691-7.96875L15.8691-11.9141Q15.8691-12.3242 15.6104-12.583Q15.3516-12.8418 14.9512-12.8418Q14.5605-12.8418 14.3115-12.583Q14.0625-12.3242 14.0625-11.9141L14.0625-7.96875L10.1172-7.96875Q9.70703-7.96875 9.45312-7.71484Q9.19922-7.46094 9.19922-7.05078Z"/>
  </g>
  <text style="stroke:none;fill:black;font-family:sans-serif;font-size:13;font-weight:bold;" transform="matrix(1 0 0 1 263 1953)">Design Variations</text>
  <text style="stroke:none;fill:black;font-family:sans-serif;font-size:13;" transform="matrix(1 0 0 1 263 1971)">Symbols are supported in up to nine weights and three scales.</text>
  <text style="stroke:none;fill:black;font-family:sans-serif;font-size:13;" transform="matrix(1 0 0 1 263 1989)">For optimal layout with text and other symbols, vertically align</text>
  <text style="stroke:none;fill:black;font-family:sans-serif;font-size:13;" transform="matrix(1 0 0 1 263 2007)">symbols with the adjacent text.</text>
  <line style="fill:none;stroke:#00AEEF;stroke-width:0.5;opacity:1.0;" x1="776" x2="776" y1="1919" y2="1933"/>
  <g transform="matrix(1 0 0 1 776 1933)">
   <path d="M3.31055 0.15625Q3.70117 0.15625 3.91602-0.00976562Q4.13086-0.175781 4.26758-0.585938L5.52734-4.0332L11.2891-4.0332L12.5488-0.585938Q12.6855-0.175781 12.9004-0.00976562Q13.1152 0.15625 13.4961 0.15625Q13.8867 0.15625 14.1162-0.0585938Q14.3457-0.273438 14.3457-0.644531Q14.3457-0.869141 14.2383-1.17188L9.6582-13.3691Q9.48242-13.8184 9.17969-14.043Q8.87695-14.2676 8.4082-14.2676Q7.5-14.2676 7.17773-13.3789L2.59766-1.16211Q2.49023-0.859375 2.49023-0.634766Q2.49023-0.263672 2.70996-0.0537109Q2.92969 0.15625 3.31055 0.15625ZM6.00586-5.51758L8.37891-12.0898L8.42773-12.0898L10.8008-5.51758Z"/>
  </g>
  <line style="fill:none;stroke:#00AEEF;stroke-width:0.5;opacity:1.0;" x1="793.197" x2="793.197" y1="1919" y2="1933"/>
  <text style="stroke:none;fill:black;font-family:sans-serif;font-size:13;font-weight:bold;" transform="matrix(1 0 0 1 776 1953)">Margins</text>
  <text style="stroke:none;fill:black;font-family:sans-serif;font-size:13;" transform="matrix(1 0 0 1 776 1971)">Leading and trailing margins on the left and right side of each symbol</text>
  <text style="stroke:none;fill:black;font-family:sans-serif;font-size:13;" transform="matrix(1 0 0 1 776 1989)">can be adjusted by modifying the x-location of the margin guidelines.</text>
  <text style="stroke:none;fill:black;font-family:sans-serif;font-size:13;" transform="matrix(1 0 0 1 776 2007)">Modifications are automatically applied proportionally to all</text>
  <text style="stroke:none;fill:black;font-family:sans-serif;font-size:13;" transform="matrix(1 0 0 1 776 2025)">scales and weights.</text>
  <g transform="matrix(1 0 0 1 1289 1933)">
   <path d="M2.8418 1.86523L4.54102 3.57422Q5.18555 4.22852 5.90332 4.17969Q6.62109 4.13086 7.31445 3.35938L18.0078-8.42773L17.041-9.4043L6.42578 2.27539Q6.16211 2.57812 5.89355 2.61719Q5.625 2.65625 5.27344 2.30469L4.10156 1.14258Q3.75 0.791016 3.79395 0.522461Q3.83789 0.253906 4.14062-0.0195312L15.6152-10.8203L14.6387-11.7871L3.04688-0.898438Q2.30469-0.214844 2.25098 0.498047Q2.19727 1.21094 2.8418 1.86523ZM9.25781-16.3281Q8.94531-16.0254 8.90625-15.6348Q8.86719-15.2441 9.04297-14.9512Q9.21875-14.6777 9.55566-14.541Q9.89258-14.4043 10.3809-14.5215Q11.4746-14.7754 12.5977-14.7314Q13.7207-14.6875 14.7949-13.9844L14.209-12.5293Q13.9551-11.9043 14.0674-11.4404Q14.1797-10.9766 14.5801-10.5664L16.875-8.25195Q17.2363-7.88086 17.5781-7.82227Q17.9199-7.76367 18.3398-7.8418L19.4043-8.03711L20.0684-7.36328L20.0293-6.80664Q20-6.43555 20.1221-6.12305Q20.2441-5.81055 20.6055-5.44922L21.3672-4.70703Q21.7285-4.3457 22.1533-4.33105Q22.5781-4.31641 22.9297-4.66797L25.8398-7.58789Q26.1914-7.93945 26.1816-8.35449Q26.1719-8.76953 25.8105-9.13086L25.0391-9.89258Q24.6875-10.2539 24.3799-10.3857Q24.0723-10.5176 23.7109-10.4883L23.1348-10.4395L22.4902-11.0742L22.7344-12.1973Q22.832-12.6172 22.6953-12.9834Q22.5586-13.3496 22.1191-13.7891L19.9219-15.9766Q18.6719-17.2168 17.2607-17.8369Q15.8496-18.457 14.4189-18.4814Q12.9883-18.5059 11.665-17.959Q10.3418-17.4121 9.25781-16.3281ZM10.752-15.957Q11.6602-16.6211 12.7002-16.9043Q13.7402-17.1875 14.8047-17.085Q15.8691-16.9824 16.8701-16.5137Q17.8711-16.0449 18.7012-15.2051L21.1328-12.793Q21.3086-12.6172 21.3525-12.4512Q21.3965-12.2852 21.3379-12.0312L21.0156-10.5469L22.5195-9.0625L23.5059-9.12109Q23.6914-9.13086 23.7891-9.09668Q23.8867-9.0625 24.0332-8.91602L24.6094-8.33984L22.168-5.89844L21.5918-6.47461Q21.4453-6.62109 21.4062-6.71875Q21.3672-6.81641 21.377-7.01172L21.4453-7.98828L19.9512-9.47266L18.4277-9.21875Q18.1836-9.16992 18.042-9.2041Q17.9004-9.23828 17.7148-9.41406L15.7129-11.416Q15.5176-11.5918 15.4932-11.7529Q15.4688-11.9141 15.5859-12.1875L16.4648-14.2773Q15.293-15.3711 13.8281-15.791Q12.3633-16.2109 10.8398-15.7617Q10.7227-15.7324 10.6885-15.8057Q10.6543-15.8789 10.752-15.957Z"/>
  </g>
  <text style="stroke:none;fill:black;font-family:sans-serif;font-size:13;font-weight:bold;" transform="matrix(1 0 0 1 1289 1953)">Exporting</text>
  <text style="stroke:none;fill:black;font-family:sans-serif;font-size:13;" transform="matrix(1 0 0 1 1289 1971)">Symbols should be outlined when exporting to ensure the</text>
  <text style="stroke:none;fill:black;font-family:sans-serif;font-size:13;" transform="matrix(1 0 0 1 1289 1989)">design is preserved when submitting to Xcode.</text>
  <text id="template-version" style="stroke:none;fill:black;font-family:sans-serif;font-size:13;text-anchor:end;" transform="matrix(1 0 0 1 3036 1933)">Template v.3.0</text>
  <text style="stroke:none;fill:black;font-family:sans-serif;font-size:13;text-anchor:end;" transform="matrix(1 0 0 1 3036 1951)">Requires Xcode 13 or greater</text>
  <text id="descriptive-name" style="stroke:none;fill:black;font-family:sans-serif;font-size:13;text-anchor:end;" transform="matrix(1 0 0 1 3036 1969)">Generated from curlybraces.app.fill</text>
  <text style="stroke:none;fill:black;font-family:sans-serif;font-size:13;text-anchor:end;" transform="matrix(1 0 0 1 3036 1987)">Typeset at 100 points</text>
  <text style="stroke:none;fill:black;font-family:sans-serif;font-size:13;" transform="matrix(1 0 0 1 263 726)">Small</text>
  <text style="stroke:none;fill:black;font-family:sans-serif;font-size:13;" transform="matrix(1 0 0 1 263 1156)">Medium</text>
  <text style="stroke:none;fill:black;font-family:sans-serif;font-size:13;" transform="matrix(1 0 0 1 263 1586)">Large</text>
 </g>
 <g id="Guides">
  <g id="H-reference" style="fill:#27AAE1;stroke:none;" transform="matrix(1 0 0 1 339 696)">
   <path d="M0.993347 0L3.6377 0L29.3282-67.1326L30.0301-67.1326L30.0301-70.459L28.1227-70.459ZM11.6882-24.4797L46.9818-24.4797L46.2311-26.7288L12.4382-26.7288ZM55.1193 0L57.7637 0L30.6381-70.459L29.4327-70.459L29.4327-67.1326Z"/>
  </g>
  <line id="Baseline-S" style="fill:none;stroke:#27AAE1;opacity:1;stroke-width:0.5;" x1="263" x2="3036" y1="696" y2="696"/>
  <line id="Capline-S" style="fill:none;stroke:#27AAE1;opacity:1;stroke-width:0.5;" x1="263" x2="3036" y1="625.541" y2="625.541"/>
  <g id="H-reference" style="fill:#27AAE1;stroke:none;" transform="matrix(1 0 0 1 339 1126)">
   <path d="M0.993347 0L3.6377 0L29.3282-67.1326L30.0301-67.1326L30.0301-70.459L28.1227-70.459ZM11.6882-24.4797L46.9818-24.4797L46.2311-26.7288L12.4382-26.7288ZM55.1193 0L57.7637 0L30.6381-70.459L29.4327-70.459L29.4327-67.1326Z"/>
  </g>
  <line id="Baseline-M" style="fill:none;stroke:#27AAE1;opacity:1;stroke-width:0.5;" x1="263" x2="3036" y1="1126" y2="1126"/>
  <line id="Capline-M" style="fill:none;stroke:#27AAE1;opacity:1;stroke-width:0.5;" x1="263" x2="3036" y1="1055.54" y2="1055.54"/>
  <g id="H-reference" style="fill:#27AAE1;stroke:none;" transform="matrix(1 0 0 1 339 1556)">
   <path d="M0.993347 0L3.6377 0L29.3282-67.1326L30.0301-67.1326L30.0301-70.459L28.1227-70.459ZM11.6882-24.4797L46.9818-24.4797L46.2311-26.7288L12.4382-26.7288ZM55.1193 0L57.7637 0L30.6381-70.459L29.4327-70.459L29.4327-67.1326Z"/>
  </g>
  <line id="Baseline-L" style="fill:none;stroke:#27AAE1;opacity:1;stroke-width:0.5;" x1="263" x2="3036" y1="1556" y2="1556"/>
  <line id="Capline-L" style="fill:none;stroke:#27AAE1;opacity:1;stroke-width:0.5;" x1="263" x2="3036" y1="1485.54" y2="1485.54"/>
  <line id="left-margin-Ultralight-S" style="fill:none;stroke:#00AEEF;stroke-width:0.5;opacity:1.0;" x1="516.811" x2="516.811" y1="600.73" y2="720.135"/>
  <line id="right-margin-Ultralight-S" style="fill:none;stroke:#00AEEF;stroke-width:0.5;opacity:1.0;" x1="602.611" x2="602.611" y1="600.73" y2="720.135"/>
  <line id="left-margin-Regular-S" style="fill:none;stroke:#00AEEF;stroke-width:0.5;opacity:1.0;" x1="1404.89" x2="1404.89" y1="600.73" y2="720.135"/>
  <line id="right-margin-Regular-S" style="fill:none;stroke:#00AEEF;stroke-width:0.5;opacity:1.0;" x1="1494.79" x2="1494.79" y1="600.73" y2="720.135"/>
  <line id="left-margin-Black-S" style="fill:none;stroke:#00AEEF;stroke-width:0.5;opacity:1.0;" x1="2886" x2="2886" y1="600.73" y2="720.135"/>
  <line id="right-margin-Black-S" style="fill:none;stroke:#00AEEF;stroke-width:0.5;opacity:1.0;" x1="2980.8" x2="2980.8" y1="600.73" y2="720.135"/>
 </g>
 <g id="Symbols">
  <g id="Black-S" transform="matrix(1 0 0 1 2886 696)">
   <path class="hierarchical-0:tertiary SFSymbolsPreview8E8E8E" d="M79.49-67.3C77.39-69.3 74.99-70.8 72.19-71.6C69.39-72.4 65.69-72.9 61.09-72.9L33.69-72.9C29.09-72.9 25.39-72.5 22.59-71.6C19.79-70.8 17.29-69.3 15.29-67.3C13.29-65.3 11.89-62.9 10.99-60.1C10.19-57.3 9.79-53.6 9.79-49L9.79-21.6C9.79-17 10.19-13.3 10.99-10.5C11.79-7.7 13.29-5.3 15.29-3.3C17.39-1.3 19.79 0.2 22.59 1C25.39 1.8 29.09 2.3 33.69 2.3L61.09 2.3C65.69 2.3 69.39 1.9 72.19 1C74.99 0.2 77.49-1.3 79.49-3.3C81.49-5.3 82.89-7.7 83.79-10.5C84.59-13.3 84.99-17 84.99-21.6L84.99-49C84.99-53.6 84.59-57.3 83.79-60.2C82.99-62.9 81.59-65.3 79.49-67.3Z"/>
   <path class="hierarchical-1:primary SFSymbolsPreview212121" d="M39.89-14.4C36.79-14.4 34.39-15.3 32.59-17.2C30.89-19.1 29.99-21.7 29.99-25L29.99-28.5C29.99-29.1 29.89-29.5 29.69-29.8C29.49-30.1 29.19-30.2 28.89-30.3C27.19-30.8 26.09-31.7 25.59-33.1C24.99-34.5 24.99-36 25.59-37.4C26.19-38.8 27.29-39.8 28.89-40.2C29.19-40.3 29.49-40.4 29.69-40.6C29.89-40.8 29.99-41.2 29.99-41.8L29.99-45.4C29.99-48.7 30.89-51.3 32.59-53.2C34.29-55.1 36.69-56 39.89-56C41.59-56 42.89-55.6 43.89-54.8C44.89-54 45.39-52.9 45.39-51.6C45.39-50.3 44.99-49.3 44.29-48.5C43.59-47.7 42.69-47.4 41.49-47.4C40.69-47.4 39.99-47.2 39.69-46.7C39.29-46.2 39.09-45.6 39.09-44.9L39.09-41.3C39.09-39 38.39-37.2 36.89-35.8C35.39-34.4 33.39-33.6 30.79-33.3L30.79-37.4C33.39-36.9 35.39-35.9 36.89-34.4C38.39-33 39.09-31.2 39.09-29.2L39.09-25.6C39.09-24.9 39.29-24.2 39.69-23.8C40.09-23.3 40.69-23.1 41.49-23.1C42.59-23.1 43.59-22.7 44.29-22C44.99-21.2 45.39-20.2 45.39-18.9C45.39-17.6 44.89-16.5 43.89-15.7C42.89-14.9 41.59-14.4 39.89-14.4ZM55.09-14.4C53.39-14.4 52.09-14.8 51.09-15.6C50.09-16.4 49.59-17.5 49.59-18.8C49.59-20.1 49.89-21.1 50.59-21.9C51.29-22.7 52.19-23 53.39-23C54.19-23 54.79-23.2 55.19-23.7C55.59-24.2 55.79-24.8 55.79-25.5L55.79-29.1C55.79-31.1 56.49-32.9 57.99-34.3C59.39-35.7 61.49-36.7 64.09-37.3L64.09-33.2C61.49-33.4 59.39-34.2 57.99-35.7C56.59-37.1 55.79-39 55.79-41.2L55.79-44.8C55.79-45.5 55.59-46.2 55.19-46.6C54.79-47.1 54.19-47.3 53.39-47.3C52.19-47.3 51.29-47.7 50.59-48.4C49.89-49.2 49.59-50.2 49.59-51.5C49.59-52.8 50.09-53.9 51.09-54.7C52.09-55.5 53.49-55.9 55.19-55.9C58.29-55.9 60.69-55 62.39-53.1C64.09-51.2 64.99-48.6 64.99-45.3L64.99-41.7C64.99-41.1 65.09-40.7 65.29-40.5C65.49-40.3 65.79-40.2 66.09-40.1C67.79-39.7 68.89-38.8 69.39-37.3C69.89-35.8 69.99-34.4 69.39-32.9C68.79-31.4 67.69-30.5 66.09-30.1C65.69-30 65.49-29.9 65.29-29.6C65.09-29.3 64.99-28.9 64.99-28.3L64.99-24.8C64.99-21.5 64.09-18.9 62.39-17C60.59-15.3 58.19-14.4 55.09-14.4Z"/>
  </g>
  <g id="Regular-S" transform="matrix(1 0 0 1 1404.89 696)">
   <path class="hierarchical-0:tertiary SFSymbolsPreview8E8E8E" d="M75.5-65.8C73.4-67.9 71-69.2 68.2-69.7C65.4-70.2 62.4-70.5 59.3-70.5L30.6-70.5C27.5-70.5 24.5-70.2 21.7-69.7C18.9-69.2 16.4-67.9 14.4-65.8C12.3-63.7 11.1-61.3 10.6-58.5C10.1-55.7 9.8-52.7 9.8-49.6L9.8-20.9C9.8-17.8 10.1-14.8 10.6-12C11.1-9.2 12.4-6.8 14.4-4.7C16.5-2.6 18.9-1.4 21.7-0.8C24.5-0.3 27.5 0 30.6 0L59.3 0C62.4 0 65.4-0.3 68.2-0.8C71-1.3 73.5-2.6 75.5-4.7C77.6-6.8 78.8-9.2 79.3-12C79.8-14.8 80.1-17.8 80.1-20.9L80.1-49.6C80.1-52.8 79.8-55.7 79.3-58.5C78.9-61.3 77.6-63.8 75.5-65.8Z"/>
   <path class="hierarchical-1:primary SFSymbolsPreview212121" d="M37.01-13.5C34.21-13.5 32.01-14.3 30.51-15.9C29.01-17.5 28.21-19.9 28.21-23.2L28.21-27.7C28.21-29 28.01-29.9 27.71-30.4C27.31-30.9 26.71-31.2 25.81-31.4C24.51-31.7 23.71-32.4 23.31-33.5C22.91-34.6 22.91-35.7 23.31-36.7C23.71-37.7 24.51-38.5 25.81-38.8C26.71-39 27.31-39.4 27.71-39.8C28.11-40.3 28.21-41.2 28.21-42.5L28.21-47C28.21-50.2 29.01-52.6 30.51-54.3C32.01-55.9 34.21-56.7 37.01-56.7C38.41-56.7 39.51-56.4 40.21-55.8C40.91-55.2 41.31-54.5 41.31-53.6C41.31-52.7 41.01-52 40.41-51.4C39.81-50.9 39.11-50.6 38.21-50.6C36.91-50.6 36.01-50.3 35.51-49.6C35.01-48.9 34.81-47.9 34.81-46.4L34.81-41.3C34.81-39.5 34.31-38.1 33.21-36.9C32.11-35.7 30.71-34.9 28.91-34.5L28.91-35.4C30.81-35 32.21-34.2 33.21-33C34.21-31.8 34.81-30.3 34.81-28.5L34.81-23.5C34.81-22 35.01-20.9 35.51-20.3C36.01-19.7 36.91-19.3 38.21-19.3C39.11-19.3 39.81-19 40.41-18.5C41.01-18 41.31-17.2 41.31-16.3C41.31-15.4 40.91-14.6 40.21-14.1C39.51-13.8 38.41-13.5 37.01-13.5ZM52.91-13.5C51.51-13.5 50.51-13.8 49.81-14.4C49.11-15 48.71-15.7 48.71-16.6C48.71-17.5 49.01-18.2 49.61-18.8C50.21-19.4 50.91-19.6 51.81-19.6C53.11-19.6 54.01-19.9 54.51-20.6C55.01-21.2 55.21-22.3 55.21-23.8L55.21-28.8C55.21-30.6 55.71-32.1 56.81-33.3C57.91-34.5 59.31-35.4 61.21-35.7L61.21-34.8C59.31-35.2 57.91-36 56.81-37.2C55.71-38.4 55.21-39.9 55.21-41.6L55.21-46.7C55.21-48.2 55.01-49.3 54.51-49.9C54.01-50.5 53.11-50.9 51.81-50.9C50.91-50.9 50.11-51.2 49.61-51.7C49.01-52.2 48.71-53 48.71-53.9C48.71-54.8 49.11-55.6 49.81-56.1C50.51-56.6 51.61-57 52.91-57C55.71-57 57.91-56.2 59.41-54.6C61.01-53 61.71-50.5 61.71-47.3L61.71-42.8C61.71-41.5 61.91-40.6 62.21-40.1C62.61-39.6 63.21-39.3 64.11-39.1C65.31-38.8 66.21-38.1 66.61-37C67.01-35.9 67.01-34.8 66.61-33.7C66.21-32.6 65.31-31.9 64.11-31.6C63.21-31.4 62.61-31 62.21-30.6C61.81-30.1 61.71-29.2 61.71-27.9L61.71-23.4C61.71-20.1 60.91-17.7 59.41-16.1C57.91-14.3 55.71-13.5 52.91-13.5Z"/>
  </g>
  <g id="Ultralight-S" transform="matrix(1 0 0 1 516.811 696)">
   <path class="hierarchical-0:tertiary SFSymbolsPreview8E8E8E" d="M72.131-64.3C70.731-65.8 68.931-66.8 66.731-67.4C64.531-68 61.531-68.3 57.731-68.3L27.731-68.3C24.231-68.3 21.331-68 19.131-67.4C16.931-66.8 15.131-65.8 13.731-64.3C12.331-62.9 11.331-61.1 10.631-59C10.031-56.9 9.731-54 9.731-50.4L9.731-20.5C9.731-16.6 10.031-13.6 10.631-11.4C11.231-9.2 12.231-7.4 13.631-6C15.131-4.6 17.031-3.6 19.131-3C21.231-2.4 24.331-2.1 28.131-2.1L57.531-2.1C61.331-2.1 64.331-2.4 66.531-3C68.731-3.6 70.531-4.6 71.931-6.1C73.431-7.6 74.431-9.4 75.031-11.5C75.631-13.6 75.931-16.7 75.931-20.5L75.931-49.9C75.931-53.7 75.631-56.8 75.031-58.9C74.631-61.1 73.531-62.9 72.131-64.3Z"/>
   <path class="hierarchical-1:primary SFSymbolsPreview212121" d="M35.581-14.8C33.481-14.8 31.781-15.4 30.581-16.5C29.381-17.7 28.781-19.5 28.781-21.9L28.781-28.5C28.781-30.2 28.481-31.4 27.881-32.1C27.281-32.8 26.281-33.3 24.881-33.8C24.381-33.9 24.081-34.2 23.981-34.6C23.881-35 23.881-35.4 23.981-35.9C24.081-36.3 24.381-36.6 24.881-36.7C26.281-37.1 27.281-37.7 27.881-38.4C28.481-39.1 28.781-40.3 28.781-42L28.781-48.6C28.781-51 29.381-52.8 30.581-54C31.781-55.2 33.481-55.7 35.581-55.7C35.881-55.7 36.181-55.6 36.381-55.4C36.581-55.2 36.681-54.9 36.681-54.6C36.681-54.3 36.581-54.1 36.381-53.8C36.181-53.6 35.881-53.5 35.581-53.5C34.181-53.5 33.081-53.1 32.181-52.3C31.281-51.5 30.881-50.1 30.881-48L30.881-41.3C30.881-39.5 30.481-38 29.581-36.9C28.681-35.7 27.481-35.2 26.081-35.1L26.081-35.3C27.581-35.3 28.681-34.7 29.581-33.5C30.481-32.3 30.881-30.8 30.881-29.1L30.881-22.5C30.881-20.4 31.281-19 32.181-18.2C33.081-17.4 34.181-17 35.581-17C35.881-17 36.181-16.9 36.381-16.7C36.581-16.5 36.681-16.2 36.681-15.9C36.681-15.6 36.581-15.4 36.381-15.1C36.181-14.9 35.881-14.8 35.581-14.8ZM50.181-14.8C49.781-14.8 49.581-14.9 49.281-15.1C49.081-15.3 48.981-15.6 48.981-15.9C48.981-16.2 49.081-16.4 49.281-16.7C49.481-16.9 49.781-17 50.081-17C51.481-17 52.581-17.4 53.481-18.2C54.381-19 54.781-20.4 54.781-22.5L54.781-29.1C54.781-30.9 55.281-32.4 56.181-33.5C57.081-34.6 58.281-35.3 59.781-35.3L59.781-35.1C58.281-35.1 57.081-35.7 56.181-36.9C55.281-38.1 54.781-39.5 54.781-41.3L54.781-48C54.781-50.1 54.381-51.5 53.481-52.3C52.581-53.1 51.481-53.5 50.081-53.5C49.781-53.5 49.581-53.6 49.281-53.8C49.081-54 48.981-54.3 48.981-54.6C48.981-54.9 49.081-55.1 49.281-55.4C49.481-55.6 49.781-55.7 50.181-55.7C52.281-55.7 53.881-55.1 55.181-54C56.381-52.8 56.981-51 56.981-48.6L56.981-42C56.981-40.3 57.281-39.1 57.881-38.4C58.481-37.7 59.481-37.1 60.881-36.7C61.281-36.6 61.581-36.3 61.781-35.9C61.981-35.5 61.981-35.1 61.781-34.7C61.581-34.3 61.281-34 60.881-33.9C59.481-33.5 58.481-33 57.881-32.3C57.281-31.6 56.981-30.4 56.981-28.6L56.981-22C56.981-19.6 56.381-17.8 55.181-16.6C53.881-15.4 52.181-14.8 50.181-14.8Z"/>
  </g>
 </g>
</svg>
